<svg xmlns="http://www.w3.org/2000/svg" xmlns:xlink="http://www.w3.org/1999/xlink" viewBox="0 0 1035 264"><defs><style>.cls-1{fill:#fedc97;}.cls-2{fill:url(#linear-gradient);}.cls-3{fill:url(#linear-gradient-2);}</style><linearGradient id="linear-gradient" x1="-17.39" y1="406.8" x2="259.8" y2="129.61" gradientUnits="userSpaceOnUse"><stop offset="0" stop-color="#ff63de"/><stop offset="1" stop-color="#b122e5"/></linearGradient><linearGradient id="linear-gradient-2" x1="574.26" y1="404.98" x2="1023.98" y2="-44.74" xlink:href="#linear-gradient"/></defs><title>add_task</title><g id="Layer_2" data-name="Layer 2"><g id="Layer_1-2" data-name="Layer 1"><path class="cls-1" d="M587.59,146.09A319.15,319.15,0,0,1,705.67,0H267.87A203.66,203.66,0,0,1,273,45.5a201.62,201.62,0,0,1-23,93.82A195.4,195.4,0,0,1,266,217a196.27,196.27,0,0,1-5.69,47H494.09A282.42,282.42,0,0,1,587.59,146.09Z"/><path class="cls-2" d="M250,139.32a202.77,202.77,0,0,1-235.6,100.8A64.27,64.27,0,0,0,64.29,264h196A196.27,196.27,0,0,0,266,217,195.4,195.4,0,0,0,250,139.32Z"/><path class="cls-3" d="M587.59,146.09A280.24,280.24,0,0,1,753.5,92c112,0,208.81,65.48,254.11,160.25A64.31,64.31,0,0,0,1035,199.71V64.29A64.48,64.48,0,0,0,970.71,0h-265A319.15,319.15,0,0,0,587.59,146.09Z"/><path class="cls-1" d="M9.7,30.47A196.19,196.19,0,0,1,250,139.32,201.62,201.62,0,0,0,273,45.5,203.66,203.66,0,0,0,267.87,0H64.29A64.38,64.38,0,0,0,9.7,30.47Z"/><path class="cls-1" d="M70,21A195.76,195.76,0,0,0,9.7,30.47,63.69,63.69,0,0,0,0,64.29V199.71a63.94,63.94,0,0,0,14.39,40.41A202.77,202.77,0,0,0,250,139.32,196,196,0,0,0,70,21Z"/><path class="cls-1" d="M587.59,146.09A282.42,282.42,0,0,0,494.09,264H565A317.25,317.25,0,0,1,587.59,146.09Z"/><path class="cls-1" d="M753.5,92a280.24,280.24,0,0,0-165.91,54.09A317.25,317.25,0,0,0,565,264H970.71a63.76,63.76,0,0,0,36.9-11.75C962.31,157.48,865.55,92,753.5,92Z"/></g></g></svg>