<svg xmlns="http://www.w3.org/2000/svg" xmlns:xlink="http://www.w3.org/1999/xlink" viewBox="0 0 1035 326"><defs><style>.cls-1{fill:#fedc97;}.cls-2{fill:url(#linear-gradient);}.cls-3{fill:url(#linear-gradient-2);}</style><linearGradient id="linear-gradient" x1="-20.72" y1="479.95" x2="281.41" y2="177.82" gradientUnits="userSpaceOnUse"><stop offset="0" stop-color="#b122e5"/><stop offset="1" stop-color="#ff63de"/></linearGradient><linearGradient id="linear-gradient-2" x1="596.11" y1="418.33" x2="1072.49" y2="-58.04" xlink:href="#linear-gradient"/></defs><title>add_tasl_bg</title><g id="Layer_2" data-name="Layer 2"><g id="Layer_1-2" data-name="Layer 1"><path class="cls-1" d="M238.29,143.85C210.35,240.65,135.48,310,47.5,310a166.29,166.29,0,0,1-23.6-1.7C35,319.33,49,326,64.29,326h196A296.67,296.67,0,0,0,266,268C266,222.59,255.88,180.14,238.29,143.85Z"/><path class="cls-2" d="M238.29,143.85C210.35,240.65,135.48,310,47.5,310a166.29,166.29,0,0,1-23.6-1.7C35,319.33,49,326,64.29,326h196A296.67,296.67,0,0,0,266,268C266,222.59,255.88,180.14,238.29,143.85Z"/><path class="cls-1" d="M970.71,0h-207c-50.87,42.28-91.3,102.22-115.53,172.73,47-43.34,105.23-69,168.36-69,88.18,0,166.89,50.08,218.5,128.46V79.39C1035,35.72,1006.07,0,970.71,0Z"/><path class="cls-3" d="M970.71,0h-207c-50.87,42.28-91.3,102.22-115.53,172.73,47-43.34,105.23-69,168.36-69,88.18,0,166.89,50.08,218.5,128.46V79.39C1035,35.72,1006.07,0,970.71,0Z"/><path class="cls-1" d="M816.5,103.73c-63.13,0-121.4,25.66-168.36,69C672.37,102.22,712.8,42.28,763.67,0H64.29C41.32,0,21.07,15.09,9.7,37.62A92.78,92.78,0,0,0,0,79.39V246.61c0,24.81,9.35,47.05,23.9,61.64A166.29,166.29,0,0,0,47.5,310c88,0,162.85-69.3,190.79-166.1C255.88,180.14,266,222.59,266,268a296.67,296.67,0,0,1-5.69,58h710.4c35.36,0,64.29-35.72,64.29-79.39V232.19C983.39,153.81,904.68,103.73,816.5,103.73Z"/></g></g></svg>