<svg xmlns="http://www.w3.org/2000/svg" xmlns:xlink="http://www.w3.org/1999/xlink" viewBox="0 0 896 242"><defs><style>.cls-1{fill:url(#linear-gradient);}.cls-2{fill:#8739e5;}</style><linearGradient id="linear-gradient" y1="121" x2="896" y2="121" gradientUnits="userSpaceOnUse"><stop offset="0" stop-color="#ff63de"/><stop offset="1" stop-color="#b122e5"/></linearGradient></defs><title>Layer 1</title><g id="Layer_2" data-name="Layer 2"><g id="Layer_1-2" data-name="Layer 1"><path class="cls-1" d="M659,120.5A152.26,152.26,0,0,1,718,0H41.63A41.75,41.75,0,0,0,0,41.63V200.37A41.75,41.75,0,0,0,41.63,242H719.34A152.26,152.26,0,0,1,659,120.5Z"/><path class="cls-2" d="M896,200.37V41.63A41.75,41.75,0,0,0,854.37,0H718a152.5,152.5,0,0,0,1.31,242h135A41.75,41.75,0,0,0,896,200.37Z"/></g></g></svg>