<svg xmlns="http://www.w3.org/2000/svg" viewBox="0 0 86.89 108.17"><defs><style>.cls-1{fill:#666;stroke:#000;stroke-miterlimit:10;stroke-width:3px;}</style></defs><title>shield</title><g id="Layer_2" data-name="Layer 2"><g id="Layer_4" data-name="Layer 4"><path class="cls-1" d="M68.72,1.52l-51,2.36C8.15,4.32.91,11.37,1.54,19.32L7.68,97.06c.43,5.48,7,9.74,14.61,9.61L63,106c7.83-.14,14.67-4.72,15.17-10.32l7.21-79.86C86.07,7.6,78.59,1.07,68.72,1.52ZM52.9,44.44l2.71-.09-2.71.09L38.05,45c-6.69,1.3-12.1-.65-14.89-3.8-5.7-6.4-.54-14.56,9.18-16.11C44,24.83,58.46,21.79,64,28.53,69.11,35.57,62.41,44.11,52.9,44.44Z"/></g></g></svg>