<?xml version="1.0" encoding="UTF-8"?>
<svg width="36px" height="36px" viewBox="0 0 36 36" version="1.1" xmlns="http://www.w3.org/2000/svg" xmlns:xlink="http://www.w3.org/1999/xlink">
    <!-- Generator: Sketch 52.5 (67469) - http://www.bohemiancoding.com/sketch -->
    <title>add</title>
    <desc>Created with Sketch.</desc>
    <g id="Page-1" stroke="none" stroke-width="1" fill="none" fill-rule="evenodd">
        <g id="Today" transform="translate(-162.000000, -158.000000)" fill="#FF63DE">
            <g id="add" transform="translate(162.000000, 158.000000)">
                <path d="M34.0366098,15.4839512 L20.5057317,15.4839512 L20.5057317,1.953 C20.5057317,1.33660976 19.6687317,7.31707317e-05 17.9948049,7.31707317e-05 C16.320878,7.31707317e-05 15.483878,1.33668293 15.483878,1.953 L15.483878,15.4840244 L1.95292683,15.4840244 C1.33660976,15.4839512 0,16.3209512 0,17.9948049 C0,19.6686585 1.33660976,20.5057317 1.95292683,20.5057317 L15.4839512,20.5057317 L15.4839512,34.0367561 C15.4839512,34.653 16.320878,35.9896829 17.994878,35.9896829 C19.668878,35.9896829 20.5058049,34.653 20.5058049,34.0367561 L20.5058049,20.5057317 L34.0368293,20.5057317 C34.6530732,20.5057317 35.9897561,19.6688049 35.9897561,17.9948049 C35.9897561,16.3208049 34.6529268,15.4839512 34.0366098,15.4839512 Z" id="Path"></path>
            </g>
        </g>
    </g>
</svg>