<?xml version="1.0" encoding="UTF-8"?>
<svg width="38px" height="28px" viewBox="0 0 38 28" version="1.1" xmlns="http://www.w3.org/2000/svg" xmlns:xlink="http://www.w3.org/1999/xlink">
    <!-- Generator: Sketch 52.5 (67469) - http://www.bohemiancoding.com/sketch -->
    <title>backspace-arrow</title>
    <desc>Created with Sketch.</desc>
    <g id="Page-1" stroke="none" stroke-width="1" fill="none" fill-rule="evenodd">
        <g id="First-Hw" transform="translate(-277.000000, -673.000000)" fill="#FFFFFF" fill-rule="nonzero">
            <g id="backspace-arrow" transform="translate(277.000000, 673.000000)">
                <path d="M34.2222222,0 L10.8888889,0 C9.8,0 9.02222222,0.466666667 8.4,1.4 L0,14 L8.4,26.6 C9.02222222,27.3777778 9.8,28 10.8888889,28 L34.2222222,28 C35.9333333,28 37.3333333,26.6 37.3333333,24.8888889 L37.3333333,3.11111111 C37.3333333,1.4 35.9333333,0 34.2222222,0 Z M29.5555556,19.6 L27.3777778,21.7777778 L21.7777778,16.1777778 L16.1777778,21.7777778 L14,19.6 L19.6,14 L14,8.4 L16.1777778,6.22222222 L21.7777778,11.8222222 L27.3777778,6.22222222 L29.5555556,8.4 L23.9555556,14 L29.5555556,19.6 Z" id="Shape"></path>
            </g>
        </g>
    </g>
</svg>