<?xml version="1.0" encoding="iso-8859-1"?>
<!-- Generator: Adobe Illustrator 17.1.0, SVG Export Plug-In . SVG Version: 6.00 Build 0)  -->
<!DOCTYPE svg PUBLIC "-//W3C//DTD SVG 1.1//EN" "http://www.w3.org/Graphics/SVG/1.1/DTD/svg11.dtd">
<svg version="1.1" id="Capa_1" xmlns="http://www.w3.org/2000/svg" xmlns:xlink="http://www.w3.org/1999/xlink" x="0px" y="0px"
	 viewBox="0 0 207.238 207.238" style="enable-background:new 0 0 207.238 207.238;" xml:space="preserve">
<path d="M197.032,167.624c-0.461,2.344-2.517,4.035-4.906,4.035H15.112c-2.39,0-4.445-1.691-4.906-4.035
	c-0.461-2.345,0.802-4.688,3.013-5.593c0.114-0.047,12.24-5.128,22.93-16c9.53-9.692,14.163-31.721,14.163-67.348
	c0-30.658,12.725-45.569,23.398-52.679c3.934-2.62,7.961-4.449,11.742-5.738c-0.071-0.653-0.113-1.315-0.113-1.987
	c0-10.08,8.2-18.28,18.28-18.28s18.28,8.201,18.28,18.28c0,0.672-0.042,1.333-0.113,1.987c3.781,1.288,7.809,3.118,11.743,5.739
	c10.674,7.11,23.396,22.021,23.396,52.677c0,35.625,4.633,57.655,14.163,67.348c10.767,10.949,22.81,15.951,22.931,16
	C196.23,162.936,197.493,165.279,197.032,167.624z M121.826,179.03H85.412c-2.762,0-5,2.239-5,5
	c0,12.797,10.41,23.208,23.207,23.208s23.207-10.411,23.207-23.208C126.826,181.269,124.588,179.03,121.826,179.03z"/>
<g>
</g>
<g>
</g>
<g>
</g>
<g>
</g>
<g>
</g>
<g>
</g>
<g>
</g>
<g>
</g>
<g>
</g>
<g>
</g>
<g>
</g>
<g>
</g>
<g>
</g>
<g>
</g>
<g>
</g>
</svg>
