<?xml version="1.0" encoding="UTF-8"?>
<svg width="280px" height="260px" viewBox="0 0 280 260" version="1.1" xmlns="http://www.w3.org/2000/svg" xmlns:xlink="http://www.w3.org/1999/xlink">
    <!-- Generator: Sketch 52.5 (67469) - http://www.bohemiancoding.com/sketch -->
    <title>undraw_taking_notes_tjaf</title>
    <desc>Created with Sketch.</desc>
    <defs>
        <linearGradient x1="49.9944184%" y1="100%" x2="49.9944184%" y2="0%" id="linearGradient-1">
            <stop stop-color="#808080" stop-opacity="0.25" offset="0%"></stop>
            <stop stop-color="#808080" stop-opacity="0.12" offset="54%"></stop>
            <stop stop-color="#808080" stop-opacity="0.1" offset="100%"></stop>
        </linearGradient>
        <linearGradient x1="49.9936241%" y1="100.004506%" x2="49.9936241%" y2="1.2807187e-14%" id="linearGradient-2">
            <stop stop-color="#808080" stop-opacity="0.25" offset="0%"></stop>
            <stop stop-color="#808080" stop-opacity="0.12" offset="54%"></stop>
            <stop stop-color="#808080" stop-opacity="0.1" offset="100%"></stop>
        </linearGradient>
        <linearGradient x1="50.0026011%" y1="100%" x2="50.0026011%" y2="-0.0182621717%" id="linearGradient-3">
            <stop stop-color="#808080" stop-opacity="0.25" offset="0%"></stop>
            <stop stop-color="#808080" stop-opacity="0.12" offset="54%"></stop>
            <stop stop-color="#808080" stop-opacity="0.1" offset="100%"></stop>
        </linearGradient>
        <linearGradient x1="49.9975438%" y1="100%" x2="49.9975438%" y2="0%" id="linearGradient-4">
            <stop stop-color="#808080" stop-opacity="0.25" offset="0%"></stop>
            <stop stop-color="#808080" stop-opacity="0.12" offset="54%"></stop>
            <stop stop-color="#808080" stop-opacity="0.1" offset="100%"></stop>
        </linearGradient>
        <linearGradient x1="50.0024608%" y1="99.9961641%" x2="50.0024608%" y2="0.00165012633%" id="linearGradient-5">
            <stop stop-color="#808080" stop-opacity="0.25" offset="0%"></stop>
            <stop stop-color="#808080" stop-opacity="0.12" offset="54%"></stop>
            <stop stop-color="#808080" stop-opacity="0.1" offset="100%"></stop>
        </linearGradient>
        <linearGradient x1="50%" y1="100.025363%" x2="50%" y2="0%" id="linearGradient-6">
            <stop stop-color="#808080" stop-opacity="0.25" offset="0%"></stop>
            <stop stop-color="#808080" stop-opacity="0.12" offset="54%"></stop>
            <stop stop-color="#808080" stop-opacity="0.1" offset="100%"></stop>
        </linearGradient>
        <linearGradient x1="49.9693811%" y1="100.000101%" x2="49.9693811%" y2="-0.0172476432%" id="linearGradient-7">
            <stop stop-color="#808080" stop-opacity="0.25" offset="0%"></stop>
            <stop stop-color="#808080" stop-opacity="0.12" offset="54%"></stop>
            <stop stop-color="#808080" stop-opacity="0.1" offset="100%"></stop>
        </linearGradient>
    </defs>
    <g id="Page-1" stroke="none" stroke-width="1" fill="none" fill-rule="evenodd">
        <g id="First-Hw" transform="translate(0.000000, -113.000000)">
            <g id="undraw_taking_notes_tjaf" transform="translate(-39.000000, 113.000000)">
                <ellipse id="Oval" fill="#6C63FF" opacity="0.1" cx="192.5" cy="254.5" rx="32.5" ry="5.5"></ellipse>
                <path d="M191.54316,32.1796595 C178.199143,43.5266121 160.886667,42.793368 145.732154,36.8907529 C130.577642,30.9881378 116.617934,20.4752505 101.84137,13.0053261 C89.7462494,6.83632894 76.7175855,2.71233234 63.2814877,0.799866891 C44.4480741,-1.81842561 23.4109775,1.37118626 10.2864138,19.7145097 C-4.32860766,40.1414685 -3.20390632,76.9839297 12.6028719,95.7458133 C20.6434197,105.284097 31.1711119,109.964639 40.3546489,117.413177 C49.5381859,124.861715 58.0328814,137.226044 57.2526008,151.600683 C56.5302317,164.909064 48.1086875,175.125598 39.4036819,181.541484 C32.6707137,186.490882 24.3802323,191.898557 23.5542321,202.154809 C22.7678556,212.078046 29.7385655,219.853489 36.3983824,224.277395 C58.1121287,238.703973 84.8611232,238.563434 106.501718,223.913828 C114.222229,218.686409 121.314858,211.735866 129.410269,207.66025 C150.660724,196.967107 174.081334,207.73052 196.581457,211.668652 C215.628228,215.001857 235.159627,213.275678 253.715675,206.618433 C264.859058,202.622252 276.045112,196.511885 283.875349,185.12827 C289.520192,176.918991 293.037551,166.528311 296.338503,156.269004 C299.861958,145.327373 303.247238,134.309361 306.494343,123.214971 C308.441997,116.55467 310.362218,109.772162 310.865134,102.641363 C311.779525,89.7271013 307.932985,76.9778193 302.699619,66.0647029 C290.285233,40.1689651 269.354815,21.9753457 246.699246,17.3528526 C224.043676,12.7303596 200.037856,21.7584276 182.457158,41.5101908" id="Path" fill="#323642"></path>
                <g id="Group" opacity="0.35" transform="translate(103.000000, 60.000000)" fill="#6C63FF">
                    <path d="M49.6543426,2.15235669 L49.6543426,0.119235669 L17.9220717,0.119235669 C16.4626295,0.119235669 17.3528287,2.16458599 17.3528287,2.16458599 L0.112031873,2.16458599 L0.112031873,47.764586 L75.809243,47.764586 L75.809243,2.15235669 L49.6543426,2.15235669 Z" id="Path" opacity="0.2"></path>
                </g>
                <path d="M254,96 C254,96 263.494954,79.0221068 277.805186,74.1313056 C283.816004,72.118032 289.0173,68.1903884 292.62768,62.9384273 C294.323074,60.4331323 295.786674,57.7758055 297,55" id="Path" stroke="#535461" stroke-width="2"></path>
                <path d="M306.687906,51.869104 C304.977158,53.408168 297,55 297,55 C297,55 298.954689,47.6711236 300.668605,46.129128 C302.38153,44.5910298 305.117596,44.6290923 306.77978,46.2141429 C308.441964,47.7991936 308.400831,50.3310059 306.687906,51.869104 Z" id="Path" fill="#6C63FF"></path>
                <path d="M302.636862,65.9528485 C300.374587,66.3854974 293,63.6983654 293,63.6983654 C293,63.6983654 298.749056,58.5095222 301.011331,58.0768733 C302.474681,57.7976999 303.981784,58.2903093 304.96493,59.3691403 C305.948076,60.4479712 306.2579,61.9491236 305.777696,63.3071279 C305.297491,64.6651322 304.100212,65.6736752 302.636862,65.9528485 Z" id="Path" fill="#6C63FF"></path>
                <path d="M286.315235,80.7785065 C284.07985,80.053594 279,74.1482096 279,74.1482096 C279,74.1482096 286.8835,72.4538004 289.118886,73.1816596 C290.564713,73.6517302 291.633527,74.8100688 291.922714,76.2203405 C292.211902,77.6306121 291.677529,79.078563 290.520889,80.018764 C289.364249,80.958965 287.761063,81.2485772 286.315235,80.7785065 Z" id="Path" fill="#6C63FF"></path>
                <path d="M272.161999,88.9373845 C269.89664,88.5815951 264,83.5829011 264,83.5829011 C264,83.5829011 271.250367,80.671897 273.518775,81.0306268 C274.984945,81.2643645 276.210442,82.2346975 276.733633,83.5761107 C277.256825,84.9175239 276.998225,86.4262247 276.055245,87.5339002 C275.112266,88.6415757 273.628169,89.1799435 272.161999,88.9462057 L272.161999,88.9373845 Z" id="Path" fill="#6C63FF"></path>
                <path d="M286.001471,57.1964272 C286.001471,59.4549824 289.995604,66 289.995604,66 C289.995604,66 293.998529,59.4579779 293.998529,57.1994226 C294.037904,55.7128011 293.284517,54.3215527 292.03117,53.5663797 C290.777822,52.8112068 289.222178,52.8112068 287.96883,53.5663797 C286.715483,54.3215527 285.962096,55.7128011 286.001471,57.1994226 L286.001471,57.1964272 Z" id="Path" fill="#6C63FF"></path>
                <path d="M269.234184,67.6278084 C269.893196,69.8363941 275.619281,75 275.619281,75 C275.619281,75 277.520165,67.3421359 276.861153,65.1335502 C276.489522,63.6377232 275.362769,62.4780013 273.92976,62.1163842 C272.496751,61.7547672 270.9903,62.2500049 270.010533,63.404809 C269.030766,64.5596131 268.73686,66.1863689 269.2459,67.6370236 L269.234184,67.6278084 Z" id="Path" fill="#6C63FF"></path>
                <path d="M254.063787,79.8663415 C254.356458,82.09111 259.16797,88 259.16797,88 C259.16797,88 262.27321,81.0099976 261.980539,78.785229 C261.877928,77.2736183 260.957726,75.9455163 259.59305,75.339435 C258.228375,74.7333537 256.645716,74.949882 255.486803,75.901223 C254.327889,76.8525641 253.785061,78.3808277 254.078421,79.8663415 L254.063787,79.8663415 Z" id="Path" fill="#6C63FF"></path>
                <path d="M306.687906,51.869104 C304.977158,53.408168 297,55 297,55 C297,55 298.954689,47.6711236 300.668605,46.129128 C302.38153,44.5910298 305.117596,44.6290923 306.77978,46.2141429 C308.441964,47.7991936 308.400831,50.3310059 306.687906,51.869104 Z" id="Path" fill="#000000" opacity="0.25"></path>
                <path d="M302.636862,65.9528485 C300.374587,66.3854974 293,63.6983654 293,63.6983654 C293,63.6983654 298.749056,58.5095222 301.011331,58.0768733 C302.474681,57.7976999 303.981784,58.2903093 304.96493,59.3691403 C305.948076,60.4479712 306.2579,61.9491236 305.777696,63.3071279 C305.297491,64.6651322 304.100212,65.6736752 302.636862,65.9528485 Z" id="Path" fill="#000000" opacity="0.25"></path>
                <path d="M286.315235,80.7785065 C284.07985,80.053594 279,74.1482096 279,74.1482096 C279,74.1482096 286.8835,72.4538004 289.118886,73.1816596 C290.564713,73.6517302 291.633527,74.8100688 291.922714,76.2203405 C292.211902,77.6306121 291.677529,79.078563 290.520889,80.018764 C289.364249,80.958965 287.761063,81.2485772 286.315235,80.7785065 Z" id="Path" fill="#000000" opacity="0.25"></path>
                <path d="M272.161999,88.9373845 C269.89664,88.5815951 264,83.5829011 264,83.5829011 C264,83.5829011 271.250367,80.671897 273.518775,81.0306268 C274.984945,81.2643645 276.210442,82.2346975 276.733633,83.5761107 C277.256825,84.9175239 276.998225,86.4262247 276.055245,87.5339002 C275.112266,88.6415757 273.628169,89.1799435 272.161999,88.9462057 L272.161999,88.9373845 Z" id="Path" fill="#000000" opacity="0.25"></path>
                <path d="M286.001471,57.1964272 C286.001471,59.4549824 289.995604,66 289.995604,66 C289.995604,66 293.998529,59.4579779 293.998529,57.1994226 C294.037904,55.7128011 293.284517,54.3215527 292.03117,53.5663797 C290.777822,52.8112068 289.222178,52.8112068 287.96883,53.5663797 C286.715483,54.3215527 285.962096,55.7128011 286.001471,57.1994226 L286.001471,57.1964272 Z" id="Path" fill="#000000" opacity="0.25"></path>
                <path d="M269.234184,67.6278084 C269.893196,69.8363941 275.619281,75 275.619281,75 C275.619281,75 277.520165,67.3421359 276.861153,65.1335502 C276.489522,63.6377232 275.362769,62.4780013 273.92976,62.1163842 C272.496751,61.7547672 270.9903,62.2500049 270.010533,63.404809 C269.030766,64.5596131 268.73686,66.1863689 269.2459,67.6370236 L269.234184,67.6278084 Z" id="Path" fill="#000000" opacity="0.25"></path>
                <path d="M254.063787,79.8663415 C254.356458,82.09111 259.16797,88 259.16797,88 C259.16797,88 262.27321,81.0099976 261.980539,78.785229 C261.877928,77.2736183 260.957726,75.9455163 259.59305,75.339435 C258.228375,74.7333537 256.645716,74.949882 255.486803,75.901223 C254.327889,76.8525641 253.785061,78.3808277 254.078421,79.8663415 L254.063787,79.8663415 Z" id="Path" fill="#000000" opacity="0.25"></path>
                <path d="M255,96 C255,96 256.876677,76.6186136 268.057785,66.31124 C272.781395,62.0187493 275.983765,56.3077557 277.183051,50.0375587 C277.731877,47.0564826 278.00532,44.0312081 278,41" id="Path" stroke="#535461" stroke-width="2"></path>
                <path d="M284.709389,34.5021429 C283.880876,36.5547151 277.763985,41 277.763985,41 C277.763985,41 276.444829,33.5579597 277.273341,31.5053876 C277.808659,30.1796617 279.011964,29.2396707 280.429983,29.0395002 C281.848002,28.8393297 283.265305,29.4093903 284.148007,30.5349457 C285.030709,31.660501 285.244707,33.1705526 284.709389,34.4962784 L284.709389,34.5021429 Z" id="Path" fill="#6C63FF"></path>
                <path d="M286.309166,48.3057959 C284.510406,49.5845517 277,50 277,50 C277,50 279.920065,43.0080933 281.724665,41.732284 C282.888397,40.905944 284.400631,40.7688265 285.691722,41.3725824 C286.982814,41.9763382 287.856615,43.2292426 287.983973,44.6593384 C288.111332,46.0894343 287.472899,47.479456 286.309166,48.3057959 Z" id="Path" fill="#6C63FF"></path>
                <path d="M278.213292,67.9928288 C275.938742,68.1776996 269,64.726778 269,64.726778 C269,64.726778 275.248199,60.1989105 277.522749,60.0140397 C278.993795,59.8945242 280.418905,60.5444618 281.261255,61.7190271 C282.103605,62.8935924 282.235222,64.414341 281.606526,65.7084217 C280.977831,67.0025024 279.684337,67.8733135 278.213292,67.9928288 Z" id="Path" fill="#6C63FF"></path>
                <path d="M267.84805,81.9114445 C265.59539,82.4712806 258,80.1936315 258,80.1936315 C258,80.1936315 263.478692,74.686612 265.725172,74.1297224 C267.978735,73.5723686 270.279447,74.8625419 270.863957,77.0114051 C271.448467,79.1602684 270.095432,81.3540907 267.84187,81.9114445 L267.84805,81.9114445 Z" id="Path" fill="#6C63FF"></path>
                <path d="M268.353525,47.6848236 C269.24469,49.723791 275.474079,54 275.474079,54 C275.474079,54 276.534711,46.4537489 275.643546,44.4147815 C274.756014,42.3718014 272.40133,41.4443503 270.384213,42.3432615 C268.367095,43.2421728 267.451384,45.6270469 268.338916,47.670027 L268.353525,47.6848236 Z" id="Path" fill="#6C63FF"></path>
                <path d="M257.026516,63.973205 C258.540262,65.7156867 266,68 266,68 C266,68 264.737536,60.1742257 263.232873,58.4286655 C261.72804,56.6859012 259.118791,56.5136099 257.404953,58.043842 C255.691115,59.5740741 255.521683,62.227362 257.026516,63.9701265 L257.026516,63.973205 Z" id="Path" fill="#6C63FF"></path>
                <path d="M248.585377,80.4123276 C249.831845,82.4163978 256.999038,86 256.999038,86 C256.999038,86 257.076942,77.9587464 255.830474,75.9546762 C254.577939,74.0060924 252.000372,73.4176856 250.02872,74.6302519 C248.057067,75.8428181 247.414443,78.4116422 248.58226,80.4123276 L248.585377,80.4123276 Z" id="Path" fill="#6C63FF"></path>
                <path d="M47,175 C47,175 35.3730835,160.229385 36.1034923,145.406814 C36.4508408,139.19289 34.823149,133.031055 31.4646508,127.845888 C29.8509474,125.39757 28.0217463,123.106022 26,121" id="Path" stroke="#535461" stroke-width="2"></path>
                <path d="M44.1005755,140.234519 C42.5832828,141.845389 35,144 35,144 C35,144 36.2087447,136.826687 37.7260375,135.215817 C39.2682566,133.711146 41.8344982,133.586749 43.5421548,134.933884 C45.2498114,136.281018 45.490589,138.619814 44.0878519,140.234519 L44.1005755,140.234519 Z" id="Path" fill="#6C63FF"></path>
                <path d="M46.4787449,155.837436 C45.3978201,157.673666 39.0042649,161 39.0042649,161 C39.0042649,161 38.8806485,153.666812 39.9644481,151.842315 C41.0574874,150.034513 43.3725199,149.460431 45.1568116,150.55471 C46.9411032,151.648989 47.5304916,154.00431 46.4787449,155.837436 Z" id="Path" fill="#6C63FF"></path>
                <path d="M31.9456579,168.920196 C34.0249554,169.458861 41,167.094211 41,167.094211 C41,167.094211 35.9016095,161.649732 33.822312,161.120197 C31.7413072,160.58319 29.6342161,161.895993 29.1159924,164.052424 C28.5977687,166.208856 29.864653,168.392319 31.9456579,168.929326 L31.9456579,168.920196 Z" id="Path" fill="#6C63FF"></path>
                <path d="M300.608806,199 C300.608806,199 303.011209,202.055645 299.500488,206.639112 C295.989767,211.22258 293.093029,215.127694 294.264319,218 C294.264319,218 299.563461,209.444194 303.873933,209.331135 C308.184406,209.218077 305.353789,204.139595 300.608806,199 Z" id="Path" fill="#6C63FF"></path>
                <path d="M301.001748,199 C301.195911,199.294517 301.349228,199.616312 301.457133,199.955802 C305.357101,204.75008 307.435528,209.223722 303.687355,209.336708 C300.184389,209.440534 296.004183,215.972356 295,217.624397 C295.033296,217.751795 295.073251,217.877184 295.119685,218 C295.119685,218 300.032594,209.449695 304.028894,209.336708 C308.025194,209.223722 305.400889,204.136291 301.001748,199 Z" id="Path" fill="#000000" opacity="0.1"></path>
                <path d="M305,202.782911 C305,204.009979 304.772727,205 304.5,205 C304.227273,205 304,204.009979 304,202.782911 C304,201.555842 304.278409,202.138003 304.568182,202.138003 C304.857955,202.138003 305,201.559328 305,202.782911 Z" id="Path" fill="#FFD037"></path>
                <path d="M306.52415,204.504679 C305.743806,204.856523 305.062273,205.068049 305.004,204.980088 C304.945728,204.892127 305.530985,204.531905 306.311329,204.180061 C307.091673,203.828217 306.785109,204.083723 306.843382,204.180061 C306.901654,204.276399 307.307027,204.152835 306.52415,204.504679 Z" id="Path" fill="#FFD037"></path>
                <path d="M288.391194,199 C288.391194,199 285.988791,202.055645 289.499512,206.639112 C293.010233,211.22258 295.906971,215.127694 294.735681,218 C294.735681,218 289.436539,209.444194 285.126067,209.331135 C280.815594,209.218077 283.646211,204.139595 288.391194,199 Z" id="Path" fill="#6C63FF"></path>
                <path d="M287.998252,199 C287.802653,199.293628 287.649229,199.615648 287.542867,199.955802 C283.639979,204.75008 281.564472,209.223722 285.312645,209.336708 C288.815611,209.440534 292.995817,215.972356 294,217.624397 C293.96497,217.749598 293.927022,217.874799 293.880315,218 C293.880315,218 288.967406,209.449695 284.971106,209.336708 C280.974806,209.223722 283.599111,204.136291 287.998252,199 Z" id="Path" fill="#000000" opacity="0.1"></path>
                <path d="M284,202.782911 C284,204.009979 284.227273,205 284.5,205 C284.772727,205 285,204.009979 285,202.782911 C285,201.555842 284.721591,202.138003 284.431818,202.138003 C284.142045,202.138003 284,201.559328 284,202.782911 Z" id="Path" fill="#FFD037"></path>
                <path d="M282.475167,204.504679 C283.258556,204.856523 283.940535,205.068049 283.996311,204.980088 C284.052086,204.892127 283.468981,204.531905 282.688127,204.180061 C281.907273,203.828217 282.214037,204.083723 282.155726,204.180061 C282.097416,204.276399 281.694313,204.152835 282.475167,204.504679 Z" id="Path" fill="#FFD037"></path>
                <ellipse id="Oval" fill="#323642" opacity="0.12906901" cx="294.5" cy="237.5" rx="24.5" ry="3.5"></ellipse>
                <path d="M306.994804,214.409558 L306.87918,215.350272 L306.714873,216.681186 L306.647933,217.23775 L306.486668,218.568663 L306.413643,219.125227 L306.252378,220.45614 L304.393271,235.580157 C304.228964,236.932244 302.007772,238 299.327128,238 L289.675594,238 C286.994951,238 284.776802,236.947368 284.609452,235.580157 L282.750345,220.45614 L282.586038,219.125227 L282.519098,218.568663 L282.35479,217.23775 L282.284808,216.681186 L282.123543,215.350272 L282.004877,214.409558 C281.913595,213.644283 283.115472,213 284.630751,213 L304.371972,213 C305.887251,213 307.089128,213.644283 306.994804,214.409558 Z" id="Path" fill="#65617D"></path>
                <polygon id="Path" fill="#9D9CB5" points="307 215 306.834071 216 282.162856 216 282 215"></polygon>
                <polygon id="Path" fill="#9D9CB5" points="306 217 305.837696 218 282.16531 218 282 217"></polygon>
                <polygon id="Path" fill="#9D9CB5" points="306 219 305.837569 220 282.165496 220 282 219"></polygon>
                <path d="M244.670518,57.1841414 L244.412648,57.1841414 C244.817872,56.7255792 245.026624,56.267017 244.992856,55.8604251 L242.659745,53.5370432 L243.550011,51.5499403 L240.550737,51.5499403 L241.106385,50 L239.328924,50 L219.663262,56.5238118 C219.663262,56.5238118 219.641773,56.795892 219.663262,57.1841414 L207,57.1841414 L207,114 L262,114 L262,57.1841414 L244.670518,57.1841414 Z" id="Path" fill="url(#linearGradient-1)"></path>
                <rect id="Rectangle" fill="#F6F7F9" x="208" y="57" width="54" height="56"></rect>
                <path d="M244,57 C241.501159,60.8846424 224.810337,66 224.810337,66 L224.914954,61.9512623 L221.827271,61.9512623 C222.001132,61.1503469 221.652668,60.3245209 220.972405,59.9253156 C220.075691,59.4046283 219.989009,57.7163394 220.000965,57 L244,57 Z" id="Path" fill="#000000" opacity="0.1"></path>
                <path d="M239.408046,50.0148134 L220.015973,56.2364211 C220.015973,56.2364211 219.794666,58.6658108 220.999562,59.2968596 C221.697504,59.6730511 222.055285,60.4471671 221.878645,61.1988939 L225.053793,61.1988939 L224.946213,65 C224.946213,65 245.324949,59.2968596 244.996062,55.6024096 L242.696922,53.3833695 L243.572931,51.4813352 L240.612943,51.4813352 L241.163138,50 L239.408046,50.0148134 Z" id="Path" fill="#9D9CB5"></path>
                <g id="Group" opacity="0.35" transform="translate(218.000000, 75.000000)" fill="#6C63FF">
                    <rect id="Rectangle" opacity="0.2" x="0.276814159" y="0.0025" width="33.4644248" height="1"></rect>
                </g>
                <g id="Group" opacity="0.35" transform="translate(218.000000, 80.000000)" fill="#6C63FF">
                    <rect id="Rectangle" opacity="0.2" x="0.276814159" y="0.115" width="33.4644248" height="1"></rect>
                </g>
                <g id="Group" opacity="0.35" transform="translate(218.000000, 85.000000)" fill="#6C63FF">
                    <rect id="Rectangle" opacity="0.2" x="0.276814159" y="0.36" width="33.4644248" height="1.248"></rect>
                </g>
                <g id="Group" opacity="0.35" transform="translate(218.000000, 90.000000)" fill="#6C63FF">
                    <rect id="Rectangle" opacity="0.2" x="0.276814159" y="0.085" width="33.4644248" height="1"></rect>
                </g>
                <g id="Group" opacity="0.35" transform="translate(218.000000, 95.000000)" fill="#6C63FF">
                    <rect id="Rectangle" opacity="0.2" x="0.276814159" y="0.195" width="33.4644248" height="1"></rect>
                </g>
                <g id="Group" opacity="0.35" transform="translate(218.000000, 100.000000)" fill="#6C63FF">
                    <rect id="Rectangle" opacity="0.2" x="0.276814159" y="0.0575" width="33.4644248" height="1"></rect>
                </g>
                <path d="M62.4123948,52.1793439 L62.2838562,52.1793439 C63.2509564,49.6973684 64.144606,47.2766763 64.1048202,46.813987 C64.0191278,45.8947368 62.1798011,47.8925739 62.0941086,47.3931146 C62.0084162,46.8936554 62.0941086,45 61.2586075,45 C60.4231064,45 59.9181331,45.9835977 59.4223412,45.9835977 C58.9265493,45.9835977 56.9097169,45.6526676 56.9097169,45.6526676 L54.3420046,52.1793439 L35,52.1793439 L35,113 L83,113 L83,52.1793439 L62.4123948,52.1793439 Z" id="Path" fill="url(#linearGradient-2)"></path>
                <rect id="Rectangle" fill="#F6F7F9" x="36" y="52" width="47" height="60"></rect>
                <path d="M63,52 C62,54.7038241 60.873065,57.5526685 60.6160991,58.2326529 C60.1176471,59.5217227 59.7894737,58.835293 59.2074303,58.6644913 C58.625387,58.4936895 57.8854489,58.835293 57.5541796,58.6644913 C57.2229102,58.4936895 55.2786378,58.6644913 55.2786378,58.6644913 C55.3003689,58.3479986 55.3003689,58.0302949 55.2786378,57.7138022 C55.2352941,57.3721987 53,57.7138022 53,57.7138022 L55.130031,52 L63,52 Z" id="Path" fill="#000000" opacity="0.1"></path>
                <path d="M57.2915215,46.6234508 L53,57.8158774 C53,57.8158774 55.1063756,57.4982144 55.144302,57.8158774 C55.1663275,58.1063895 55.1663275,58.3981965 55.144302,58.6887086 C55.144302,58.6887086 56.9793578,58.5283927 57.2915215,58.6887086 C57.6036852,58.8490245 58.3038654,58.5283927 58.8494225,58.6887086 C59.3949796,58.8490245 59.7071433,59.4813818 60.1768476,58.2908876 C60.6465518,57.1003934 64.0774351,48.6066182 63.9986648,47.733787 C63.9198945,46.8609559 62.2044529,48.7669341 62.1256826,48.2889552 C62.0469123,47.8109762 62.1256826,46 61.3467321,46 C60.5677815,46 60.0980773,46.9411139 59.6312905,46.9411139 C59.1645036,46.9411139 57.2915215,46.6234508 57.2915215,46.6234508 Z" id="Path" fill="#9D9CB5"></path>
                <g id="Group" opacity="0.35" transform="translate(42.000000, 68.000000)" fill="#6C63FF">
                    <rect id="Rectangle" opacity="0.2" x="0.00910714286" y="0.01" width="33.7632143" height="1"></rect>
                </g>
                <g id="Group" opacity="0.35" transform="translate(42.000000, 72.000000)" fill="#6C63FF">
                    <rect id="Rectangle" opacity="0.2" x="0.00910714286" y="0.2025" width="33.7632143" height="1"></rect>
                </g>
                <g id="Group" opacity="0.35" transform="translate(42.000000, 75.000000)" fill="#6C63FF">
                    <rect id="Rectangle" opacity="0.2" x="0.00910714286" y="0.1425" width="33.7632143" height="1"></rect>
                </g>
                <g id="Group" opacity="0.35" transform="translate(42.000000, 79.000000)" fill="#6C63FF">
                    <rect id="Rectangle" opacity="0.2" x="0.00910714286" y="0.085" width="33.7632143" height="1"></rect>
                </g>
                <g id="Group" opacity="0.35" transform="translate(42.000000, 83.000000)" fill="#6C63FF">
                    <rect id="Rectangle" opacity="0.2" x="0.00910714286" y="0.025" width="33.7632143" height="1"></rect>
                </g>
                <g id="Group" opacity="0.35" transform="translate(42.000000, 86.000000)" fill="#6C63FF">
                    <rect id="Rectangle" opacity="0.2" x="0.00910714286" y="0.215" width="33.7632143" height="1"></rect>
                </g>
                <path d="M238.669563,141.86665 L238.540654,141.86665 C239.73152,138.798605 240.830307,135.801125 240.77813,135.239673 C240.676845,134.1137 238.411746,136.571204 238.322738,135.957595 C238.23373,135.343986 238.322738,133 237.294543,133 C236.266348,133 235.64943,134.227218 235.032513,134.227218 C234.415596,134.227218 231.944858,133.8161 231.944858,133.8161 L228.771264,141.86665 L205,141.86665 L205,217 L264,217 L264,141.86665 L238.669563,141.86665 Z" id="Path" fill="url(#linearGradient-3)"></path>
                <rect id="Rectangle" fill="#F6F7F9" x="206" y="142" width="58" height="74"></rect>
                <path d="M239,142 C237.809068,145.09538 236.473048,148.335573 236.161713,149.113943 C235.557179,150.604311 235.167254,149.807839 234.469018,149.611738 C233.770781,149.415637 232.876071,149.807839 232.477078,149.611738 C232.078086,149.415637 229.738539,149.611738 229.738539,149.611738 C229.764666,149.247154 229.764666,148.881173 229.738539,148.516589 C229.687154,148.12137 227,148.516589 227,148.516589 L229.548111,142 L239,142 Z" id="Path" fill="#000000" opacity="0.1"></path>
                <path d="M232.460704,134.768082 L227,148.543146 C227,148.543146 229.67912,148.151691 229.730352,148.543146 C229.756411,148.900532 229.756411,149.259296 229.730352,149.616681 C229.730352,149.616681 232.062904,149.42392 232.460704,149.616681 C232.858504,149.809443 233.750539,149.42392 234.446688,149.616681 C235.142838,149.809443 235.537624,150.595319 236.134323,149.130328 C236.731023,147.665338 241.097778,137.208745 240.998328,136.135209 C240.898878,135.061673 238.713993,137.404472 238.614544,136.820255 C238.515094,136.236038 238.614544,134 237.623058,134 C236.631573,134 236.034873,135.159537 235.438174,135.159537 C234.841474,135.159537 232.460704,134.768082 232.460704,134.768082 Z" id="Path" fill="#9D9CB5"></path>
                <g id="Group" opacity="0.35" transform="translate(218.000000, 163.000000)" fill="#6C63FF">
                    <rect id="Rectangle" opacity="0.2" x="0.276814159" y="0.2" width="33.4644248" height="2.64333333"></rect>
                </g>
                <g id="Group" opacity="0.35" transform="translate(218.000000, 178.000000)" fill="#6C63FF">
                    <rect id="Rectangle" opacity="0.2" x="0.276814159" y="0.0366666667" width="33.4644248" height="2.64333333"></rect>
                </g>
                <g id="Group" opacity="0.35" transform="translate(218.000000, 194.000000)" fill="#6C63FF">
                    <rect id="Rectangle" opacity="0.2" x="0.276814159" y="0.21" width="33.4644248" height="2.64333333"></rect>
                </g>
                <polygon id="Path" fill="url(#linearGradient-4)" points="72.0389547 144.010093 72.0389547 135 59.3965221 135 59.3965221 144.010093 33 144.010093 33 215 95 215 95 144.010093"></polygon>
                <rect id="Rectangle" fill="#F6F7F9" x="34" y="145" width="61" height="70"></rect>
                <rect id="Rectangle" fill="#000000" opacity="0.1" x="60" y="144" width="12" height="10"></rect>
                <rect id="Rectangle" fill="#9D9CB5" x="60" y="136" width="12" height="18"></rect>
                <g id="Group" opacity="0.35" transform="translate(47.000000, 161.000000)" fill="#6C63FF">
                    <rect id="Rectangle" opacity="0.2" x="0.288849558" y="0.213333333" width="33.4644248" height="2.64333333"></rect>
                </g>
                <g id="Group" opacity="0.35" transform="translate(47.000000, 166.000000)" fill="#6C63FF">
                    <rect id="Rectangle" opacity="0.2" x="0.288849558" y="0.136666667" width="33.4644248" height="2.64333333"></rect>
                </g>
                <g id="Group" opacity="0.35" transform="translate(47.000000, 171.000000)" fill="#6C63FF">
                    <rect id="Rectangle" opacity="0.2" x="0.288849558" y="0.0633333333" width="33.4644248" height="2.64333333"></rect>
                </g>
                <g id="Group" opacity="0.35" transform="translate(47.000000, 176.000000)" fill="#6C63FF">
                    <rect id="Rectangle" opacity="0.2" x="0.288849558" y="0.32" width="33.4644248" height="2.64333333"></rect>
                </g>
                <g id="Group" opacity="0.35" transform="translate(72.000000, 181.000000)" fill="#6C63FF">
                    <rect id="Rectangle" opacity="0.2" x="0.121935484" y="0.1664" width="8.64290323" height="7.6992"></rect>
                </g>
                <g id="Group" opacity="0.35" transform="translate(47.000000, 190.000000)" fill="#6C63FF">
                    <rect id="Rectangle" opacity="0.2" x="0.278709677" y="0.0896" width="8.64290323" height="7.6992"></rect>
                </g>
                <path d="M159.167725,144.388155 L159.082288,144.388155 C160.070919,140.500076 160.815444,137.403729 160.815444,137.403729 L156.598504,139.398402 C156.598504,139.398402 153.605148,135.409056 152.497515,136.07497 C151.389881,136.740884 148.95797,138.401066 148.95797,138.401066 L145.729662,136.737815 L144.493873,144.388155 L119,144.388155 L119,199.591509 L120.638565,200.576571 C121.990305,200.088643 124.214725,199.260087 124.214725,199.260087 L123.192529,202.114004 L123.88213,202.525214 L125.044687,201.466502 L125.474925,203.488794 L126.857178,204.32042 L129.03888,202.924148 L128.428614,205.274794 L130.476057,206.502286 L136.429204,204.252908 L134.635021,209.003299 L135.815887,209.715244 L138.510212,209.239591 C138.510212,209.239591 138.388159,210.187828 138.311876,211.215852 L141.015355,212.842279 C142.122988,212.409588 143.166544,211.983035 143.166544,211.983035 C143.166544,211.983035 143.059747,213.020265 143.010926,214.039083 L144.823417,215.13155 C146.254491,214.290718 148.076136,213.146083 148.076136,213.146083 L146.55047,216 L181,216 L181,144.388155 L159.167725,144.388155 Z" id="Path" fill="url(#linearGradient-5)"></path>
                <path d="M181,145 L181,215 L147.101927,215 L148.614223,212.212524 C148.614223,212.212524 146.823346,213.328122 145.415136,214.151902 L143.633444,213.0819 C143.682425,212.087893 143.789571,211.072607 143.789571,211.072607 C143.789571,211.072607 142.760966,211.489057 141.671133,211.911586 L139.01084,210.321782 C139.087373,209.318656 139.203704,208.391523 139.203704,208.391523 L136.555656,208.856609 L135.395413,208.1605 L137.158737,203.51572 L131.302419,205.716519 L129.285005,204.500608 L129.872779,202.202536 L127.72985,203.567396 L126.370621,202.755776 L125.948158,200.77992 L124.803222,201.819524 L124.123607,201.415234 L125.130784,198.627758 C125.130784,198.627758 122.941935,199.436338 121.610258,199.913583 L120,198.953014 L120,145 L181,145 Z" id="Path" fill="#F6F7F9"></path>
                <g id="Group" opacity="0.35" transform="translate(133.000000, 166.000000)" fill="#6C63FF">
                    <rect id="Rectangle" opacity="0.2" x="0.282831858" y="0.136666667" width="33.4644248" height="2.64333333"></rect>
                </g>
                <g id="Group" opacity="0.35" transform="translate(133.000000, 174.000000)" fill="#6C63FF">
                    <rect id="Rectangle" opacity="0.2" x="0.282831858" y="0.04" width="33.4644248" height="2.64333333"></rect>
                </g>
                <g id="Group" opacity="0.35" transform="translate(133.000000, 181.000000)" fill="#6C63FF">
                    <rect id="Rectangle" opacity="0.2" x="0.282831858" y="0.273333333" width="33.4644248" height="2.64333333"></rect>
                </g>
                <g id="Group" opacity="0.35" transform="translate(133.000000, 188.000000)" fill="#6C63FF">
                    <rect id="Rectangle" opacity="0.2" x="0.274166667" y="0.176666667" width="6.49833333" height="2.64333333"></rect>
                </g>
                <path d="M160,145.00297 C158.312145,151.353874 155.851988,160.152459 155.210478,159.997994 C154.213959,159.739561 152.656897,157.918652 152.656897,157.918652 C152.656897,157.918652 148.994688,161.201042 147.219637,159.507863 C145.444587,157.814685 143,158.976146 143,158.976146 L145.366734,145 L160,145.00297 Z" id="Path" fill="#000000" opacity="0.1"></path>
                <path d="M146.429287,137.716778 L143,158.967879 C143,158.967879 145.35632,157.787597 147.069461,159.506835 C148.782601,161.226072 152.320087,157.889968 152.320087,157.889968 C152.320087,157.889968 153.822842,159.732654 154.784605,159.997615 C155.746368,160.262576 161,138.361116 161,138.361116 L156.927534,140.294129 C156.927534,140.294129 154.036233,136.428103 152.963266,137.07244 C151.890299,137.716778 149.546001,139.327622 149.546001,139.327622 L146.429287,137.716778 Z" id="Path" fill="#9D9CB5"></path>
                <path d="M174.401383,43.0604908 L174.401383,41 L142.116752,41 C140.635164,41 141.541762,43.0604908 141.541762,43.0604908 L124,43.0604908 L124,89 L201,89 L201,43.0422294 L174.401383,43.0604908 Z" id="Path" fill="url(#linearGradient-6)"></path>
                <rect id="Rectangle" fill="#F6F7F9" x="125" y="43" width="76" height="46"></rect>
                <path d="M174.1781,51 L144.368202,51 C144.368202,51 144.046632,47.6913276 145.092488,47.0785039 C146.138344,46.4656802 142.117208,44.3078504 142.117208,44.3078504 C142.072686,44.207212 142.033566,44.1044612 142,44 L174.1781,44 L174.1781,45.001233 C174.1781,45.001233 178.277375,48.4623921 174.1781,51 Z" id="Path" fill="#000000" opacity="0.1"></path>
                <path d="M141.849961,41 L174.132759,41 L174.132759,43.7324649 C174.132759,43.7324649 178.334051,47.3396794 174.132759,50 L143.580992,50 C143.580992,50 143.251418,46.5430862 144.323302,45.9028056 C145.395186,45.2625251 141.273978,43.008016 141.273978,43.008016 C141.273978,43.008016 140.368421,41 141.849961,41 Z" id="Path" fill="#9D9CB5"></path>
                <g id="Group" opacity="0.35" transform="translate(134.000000, 57.000000)" fill="#6C63FF">
                    <rect id="Rectangle" opacity="0.2" x="0.204526316" y="0.384" width="57.5665263" height="1.248"></rect>
                </g>
                <g id="Group" opacity="0.35" transform="translate(134.000000, 61.000000)" fill="#6C63FF">
                    <rect id="Rectangle" opacity="0.2" x="0.205701754" y="0.18" width="34.5855263" height="1"></rect>
                </g>
                <g id="Group" opacity="0.35" transform="translate(134.000000, 65.000000)" fill="#6C63FF">
                    <rect id="Rectangle" opacity="0.2" x="0.204526316" y="0.1225" width="57.5665263" height="1"></rect>
                </g>
                <g id="Group" opacity="0.35" transform="translate(134.000000, 68.000000)" fill="#6C63FF">
                    <rect id="Rectangle" opacity="0.2" x="0.204526316" y="0.0625" width="57.5665263" height="1"></rect>
                </g>
                <g id="Group" opacity="0.35" transform="translate(134.000000, 72.000000)" fill="#6C63FF">
                    <rect id="Rectangle" opacity="0.2" x="0.204526316" y="0.0025" width="57.5665263" height="1"></rect>
                </g>
                <path d="M214.978658,253.755005 C214.432176,251.427779 214.096348,249.387639 214.096348,249.387639 C214.096348,249.387639 214.22152,246.855789 213.085813,244.956137 L213.085813,244.323938 L213.085813,239.648108 C213.407794,238.801351 213.802066,237.983904 214.264262,237.204826 C215.106883,235.732749 214.264262,230.345313 214.264262,230.345313 C214.264262,230.345313 211.14412,222.749762 211.904311,217.933443 C212.664502,213.117124 205.493061,196.539458 205.493061,196.539458 C205.537146,194.939956 205.763513,193.350709 206.167769,191.802546 C206.242203,191.477218 206.273003,191.143424 206.259358,190.809963 C206.259358,190.77026 206.259358,190.730556 206.259358,190.687799 L206.259358,190.727502 C206.152504,187.551236 203.642957,181.595737 203.642957,181.595737 L203.978785,170.24364 C203.978785,170.24364 205.581597,163.549048 202.96825,154.566935 C202.052357,151.430372 201.469238,148.922954 201.099828,146.986653 C201.057086,146.766758 201.017398,146.556025 200.980762,146.354454 C206.363159,145.532901 210.472465,144.848782 210.472465,144.848782 C210.472465,144.848782 207.349271,131.777225 205.242717,129.492757 C203.136163,127.208289 201.447867,120.025041 201.447867,120.025041 C201.447867,120.025041 200.348796,110.798599 202.122575,108.114043 C203.896354,105.429488 204.143646,100.76282 204.143646,100.76282 C204.143646,100.76282 208.191892,97.8247736 208.698686,96.5176179 C209.20548,95.2104622 210.048102,92.2724161 210.048102,90.7148241 C210.048102,89.1572321 209.541308,87.7737239 209.712274,86.9582787 C209.883241,86.1428334 208.530772,83.0398658 209.20548,81.5677886 C209.380773,81.1157921 209.471829,80.6355004 209.474142,80.1506853 C209.475839,80.1364833 209.475839,80.1221298 209.474142,80.1079279 C209.474142,80.1079279 209.474142,80.1079279 209.474142,80.0926574 C209.478637,78.8065033 209.359016,77.5229182 209.116944,76.2597594 C209.116944,76.2597594 207.285158,74.6441394 205.114492,74.121888 L205.025956,73.7706662 L204.796982,72.8544356 C204.668068,72.7678615 204.534559,72.6883383 204.397043,72.6162157 L204.397043,72.2833186 L204.360407,70.9578383 L204.995426,67.9739807 C206.237987,62.7820073 199.322996,62.0154277 199.322996,62.0154277 C198.908482,61.2156461 198.21069,60.5992719 197.366038,60.2868059 C195.973881,59.7950955 197.134012,68.0869824 197.784296,68.6153421 C198.275825,69.0154294 199.787048,71.6144702 200.513657,72.8910849 L200.632723,73.1018179 C200.522346,73.2045619 200.420263,73.3158744 200.327425,73.434715 L200.589981,75.2335811 L200.62967,75.5084503 C200.17214,76.0792705 199.80081,76.7141594 199.527545,77.3928312 C199.527545,77.3928312 200.794531,78.7793935 200.541133,80.3308773 C200.287736,81.8823611 200.928861,83.8156077 200.959391,83.9225013 C200.883067,83.8369864 199.994651,82.8718902 199.106235,83.107056 C198.217818,83.3422219 195.747961,84.0874228 195.747961,84.0874228 C195.747961,84.0874228 193.891751,84.4142117 194.062718,84.8234614 C194.233684,85.232711 192.795733,87.028523 192.795733,87.028523 L187.810222,82.3007731 C187.761375,82.1602844 187.712527,82.0197957 187.666732,81.8731988 C187.45889,81.1977739 187.313768,80.5046107 187.23321,79.8025177 C187.776151,79.6728994 188.30881,79.5034472 188.826863,79.2955368 C189.351161,79.1167355 189.824556,78.813945 190.206809,78.4129013 C190.707497,77.8020809 190.817404,77.0049603 191.009741,76.2750299 C191.403575,74.8212773 192.252303,73.5263381 192.859845,72.1489381 C193.886058,69.822161 194.231182,67.2518364 193.855115,64.7366325 C193.776475,63.9629766 193.51371,63.2194237 193.088818,62.5682201 C192.276727,61.4473647 190.799086,60.9923035 189.730544,60.0974516 C188.662003,59.2025997 187.965924,57.8404702 186.714204,57.1685678 C185.584602,56.5577474 184.204657,56.6341 182.931566,56.8417789 C180.436554,57.2526945 178.039832,58.1247394 175.863926,59.4133328 C175.137317,59.8439611 174.337438,60.3295634 173.500922,60.1890747 C172.786526,60.0608024 172.261414,59.4866312 171.800414,58.939947 C171.806123,58.9161247 171.81326,58.8926675 171.821785,58.8697026 L171.766832,58.8055665 C171.238841,59.9779739 170.974145,61.2519025 170.991376,62.5376791 C170.991376,62.7361957 170.991376,62.9347124 171.015799,63.1484995 C171.015799,63.2187439 171.015799,63.2889882 171.015799,63.3592325 C171.020314,63.416153 171.020314,63.4733418 171.015799,63.5302623 C171.015846,63.6190907 171.003515,63.7074921 170.979164,63.792915 C170.873143,64.0485311 170.713907,64.2786224 170.512058,64.4678716 C170.359801,64.6390872 170.223862,64.8241552 170.106013,65.020664 C170.127383,64.9534738 170.148754,64.8862835 170.173178,64.8190933 C169.855069,65.2824362 169.676047,65.8271188 169.657225,66.3889017 C169.629997,66.7992608 169.764834,67.2039212 170.032741,67.5158654 C170.281249,67.7599617 170.553269,67.9788854 170.844833,68.1694432 C170.140714,72.0936193 171.956423,76.0408899 175.393768,78.0586254 C175.451774,78.1991141 175.506728,78.3426569 175.564734,78.4861997 C176.199753,80.1659558 176.679071,82.1205811 176.480627,83.9255554 C176.462309,84.0599359 176.443991,84.1912623 176.419568,84.3225886 C176.355455,84.3897789 176.294396,84.4600232 176.239442,84.5302676 C176.239442,84.5302676 167.996406,84.6096742 166.069978,82.8535656 C164.14355,81.0974569 161.185216,87.1293084 161.185216,87.1293084 C161.185216,87.1293084 158.232988,87.7034795 157.643763,87.1293084 C157.054539,86.5551372 153.595517,87.0499017 153.595517,87.0499017 C153.595517,87.0499017 151.48591,85.0067075 148.451251,85.171629 C147.298586,84.2953007 146.026957,83.5877799 144.67472,83.0704068 L144.580078,83.0368117 C143.986296,82.8222451 143.352373,82.7419325 142.723868,82.8016458 C142.723868,82.8016458 138.675621,79.4421336 137.497172,77.6585381 C136.318724,75.8749425 130.692088,69.1986756 130.667664,69.1681345 L130.646294,68.8627243 L130.582181,67.8915199 C130.415504,67.9177901 130.247159,67.9320791 130.07844,67.9342773 L129.96548,67.5983261 C129.642509,66.6508433 129.242239,65.7315181 128.768713,64.8496343 C128.768713,64.8496343 128.768713,63.6279935 129.125911,63.3225833 C129.48311,63.0171731 128.979369,58.5245891 128.979369,58.5245891 C128.979369,58.5245891 125.331062,49.9914281 122.064377,56.3622849 C122.064377,56.3622849 115.888206,60.4822685 121.07216,65.2802627 C121.07216,65.2802627 123.139025,66.2850623 123.432111,67.0791288 C123.624448,67.595272 124.326633,69.0337541 124.799844,69.9927421 C124.879221,70.1515554 124.94944,70.2981523 125.010499,70.4203164 L124.952493,70.469182 L125.028817,71.2693567 L125.059347,71.5747669 C124.082394,72.1306135 123.419899,72.6772977 123.581706,73.1018179 C123.870268,73.8090455 124.068247,74.5499462 124.170931,75.3068795 C124.170931,75.3068795 131.339319,84.2889935 132.267424,88.1341079 C132.267424,88.1341079 151.501175,99.5656117 157.820836,100.384111 L156.724817,106.098336 C156.724817,106.098336 156.385937,109.528092 156.47142,110.752787 C156.556904,111.977482 155.711229,117.532894 155.711229,117.532894 C155.711229,117.532894 154.615211,125.696508 153.687106,126.838743 C152.759001,127.980977 152.929968,132.88281 152.929968,132.88281 C152.706641,135.228758 152.282762,137.551246 151.662983,139.824784 C150.74709,142.927752 151.412639,146.763704 151.412639,146.763704 C151.412639,146.763704 148.207013,154.114927 155.882196,149.133687 C155.882196,149.133687 159.649569,148.898521 163.987848,148.751924 C163.987848,148.892413 163.987848,149.035956 163.987848,149.182553 C163.987848,149.741453 163.96953,150.346166 163.963424,150.984473 C163.905418,155.193025 163.880994,160.992765 164.070278,165.38151 C164.406106,173.138929 166.769109,188.491899 166.769109,188.491899 L166.769109,196.203507 C166.616651,196.928509 166.54194,197.667711 166.546242,198.408569 C166.494276,201.127204 167.215278,203.804688 168.625319,206.129338 L169.147378,211.220527 C169.147378,211.220527 170.533429,214.61058 170.560906,216.635449 C170.554314,216.800771 170.53389,216.96525 170.499846,217.12716 C170.448183,217.386489 170.425655,217.650782 170.432681,217.915118 C170.353304,220.251506 171.760726,225.837459 171.760726,225.837459 C171.760726,225.837459 171.846209,231.472277 172.676619,231.799066 C173.397121,232.076989 171.714931,235.045576 171.21119,235.897671 C171.21119,235.842697 171.189819,235.790777 171.18066,235.735803 C171.116548,235.845751 171.076859,235.906833 171.076859,235.906833 C170.903517,236.361307 170.814541,236.843612 170.814303,237.330044 C170.716778,238.115812 171.080481,238.887479 171.748514,239.312157 C173.351326,240.292523 174.212266,241.107969 172.853691,241.450028 C172.353205,241.526374 171.856955,241.628311 171.366892,241.755438 C171.342468,241.691302 171.318044,241.627166 171.296673,241.566084 C170.906208,241.727372 170.676667,242.134895 170.741032,242.552559 C170.704396,242.964863 170.84178,243.566521 171.244773,244.464427 C172.594188,247.484934 173.528399,248.630222 173.528399,248.630222 L174.17563,248.556923 C174.076981,248.802399 173.951016,249.035982 173.800114,249.253259 C173.553676,249.607534 173.226012,249.897618 172.844532,250.099245 C172.493346,250.31117 172.100911,250.445501 171.69356,250.493224 C170.767769,250.524152 169.898728,250.947175 169.30308,251.656837 C168.463511,252.744097 167.935346,254.228391 169.608377,255.529438 L175.641059,257.612336 C175.641059,257.612336 186.021178,258.959195 185.462483,256.631969 C184.903789,254.304743 184.580173,252.264603 184.580173,252.264603 C184.580173,252.264603 184.696186,249.992351 183.737552,248.135457 C183.63029,247.923294 183.507852,247.719156 183.371195,247.524637 L183.737552,247.48188 C183.737552,247.48188 184.49469,242.338772 185.508278,241.373676 C185.740304,241.147672 185.792205,240.973588 185.737251,240.842262 C185.844105,240.561284 185.578497,240.396363 185.239616,240.30474 L185.166345,240.506311 C184.835301,240.434049 184.497683,240.396181 184.158863,240.393309 C184.158863,240.393309 183.819982,237.699591 184.916001,236.728386 C185.096451,236.503543 185.174014,236.213127 185.129709,235.928212 C185.138958,235.559414 185.100996,235.190947 185.016749,234.831789 C185.016749,234.850114 184.992325,234.874546 184.97706,234.892871 C184.424471,232.449589 182.55605,228.561718 182.55605,228.561718 C182.55605,228.561718 182.470567,226.118436 183.145274,225.135015 C183.819982,224.151594 183.062844,211.822185 183.062844,211.822185 C183.062844,211.822185 183.316241,205.863632 182.55605,203.087453 C181.795859,200.311274 183.471943,197.043385 183.471943,197.043385 C183.471943,197.043385 183.471943,196.979249 183.453625,196.866247 L183.474996,196.82349 C183.474996,196.82349 183.43836,196.456997 183.377301,195.88588 C183.368864,195.903667 183.361722,195.922039 183.35593,195.940854 C183.188016,194.364938 182.864401,191.506298 182.629321,190.183872 C182.290441,188.305599 182.711752,179.323485 182.711752,179.323485 L184.23824,175.487533 L186.937071,182.099664 L189.806869,190.919911 C189.806869,190.919911 191.226503,192.782913 191.260085,194.670348 C191.260085,194.761971 191.260085,194.853594 191.241768,194.945217 C191.21884,195.140852 191.207626,195.337684 191.208185,195.534659 C191.15766,196.648459 191.46353,197.749354 192.081336,198.67733 C192.081336,198.67733 192.841527,202.840071 194.023029,203.902898 C195.204531,204.965726 195.201478,207.005866 195.201478,207.005866 C195.201478,207.005866 196.636377,213.04688 197.311085,214.109707 C197.878938,215.004559 197.92168,217.469219 197.903362,218.217474 C197.903362,218.357963 197.903362,218.43737 197.903362,218.43737 C197.903362,218.43737 198.101805,220.59662 198.095699,222.407702 C198.095699,222.630652 198.095699,222.847493 198.074329,223.052118 L198.074329,223.006306 C198.072295,223.501004 198.013911,223.993858 197.900309,224.475329 C197.890358,224.502247 197.882199,224.529794 197.875885,224.55779 C197.875885,224.457005 197.875885,224.353165 197.900309,224.25238 C197.606353,225.485638 197.464858,226.750334 197.478998,228.018087 C197.43931,230.189554 197.784296,232.764162 199.084864,234.272888 C201.362384,236.8872 202.797283,236.560411 202.797283,236.560411 C202.797283,236.560411 201.698211,239.825246 200.354902,240.478824 C200.304222,240.50465 200.256167,240.535335 200.211412,240.570447 C200.211412,240.506311 200.186988,240.445229 200.177829,240.381092 C199.896955,240.625421 199.783995,241.065211 199.783995,241.602733 C199.6863,243.038161 200.589981,245.371495 201.453973,246.443485 C201.772749,246.756118 202.163994,246.984865 202.592734,247.109279 C202.523741,247.156608 202.452415,247.200438 202.379025,247.240605 C202.229075,247.322619 202.07408,247.395045 201.914973,247.457447 C201.697134,247.553953 201.465201,247.614793 201.228053,247.637639 C200.301501,247.658742 199.428649,248.076976 198.831467,248.785981 C197.991898,249.870187 197.463733,251.354481 199.136764,252.655528 L205.169446,254.738426 C205.169446,254.738426 215.531247,256.082231 214.978658,253.755005 Z" id="Path" fill="url(#linearGradient-7)"></path>
                <path d="M175.719493,257.605849 L170.027835,255.494757 C168.45608,254.176098 168.956183,252.671712 169.750991,251.569735 C170.302358,250.855703 171.124449,250.425453 172.004436,250.390371 C172.390314,250.341384 172.761186,250.205085 173.090971,249.991058 C173.450053,249.783253 173.756225,249.489289 173.984013,249.133621 C174.400368,248.448546 174.625073,247.65646 174.632958,246.846088 C174.632958,246.846088 180.884256,244.94239 182.592944,246.846088 C182.89817,247.190231 183.152944,247.579279 183.349054,248.000688 C184.242096,249.882718 184.146838,252.185728 184.146838,252.185728 C184.146838,252.185728 184.465357,254.250388 184.980345,256.612212 C185.495333,258.974035 175.719493,257.605849 175.719493,257.605849 Z" id="Path" fill="#2D293D"></path>
                <path d="M203.714368,254.607048 L198.025164,252.495737 C196.457063,251.176942 196.956951,249.672401 197.748441,248.573405 C198.298295,247.857664 199.120802,247.426966 200.000913,247.39392 C200.226363,247.371076 200.446585,247.309349 200.652553,247.21127 C200.802681,247.147715 200.948776,247.074301 201.089955,246.991471 C202.681861,246.081316 202.640204,243.846175 202.640204,243.846175 C202.640204,243.846175 208.888806,241.942281 210.596757,243.846175 C210.825352,244.103444 211.025009,244.38699 211.191862,244.691319 C212.263051,246.616883 212.14403,249.186367 212.14403,249.186367 C212.14403,249.186367 212.462411,251.254336 212.980153,253.613308 C213.497894,255.972279 203.714368,254.607048 203.714368,254.607048 Z" id="Path" fill="#2D293D"></path>
                <path d="M183.192626,246.81041 C183.518546,247.140265 183.790594,247.51316 184,247.917073 L174,249 C174.444584,248.343369 174.684524,247.58417 174.692943,246.807443 C174.692943,246.807443 181.368086,244.988719 183.192626,246.81041 Z" id="Path" fill="#000000" opacity="0.1"></path>
                <path d="M212,244.604838 L212,246.335008 C210.481795,248.702609 203.132938,248.185614 201,246.995938 C201.156646,246.935634 201.309084,246.865973 201.456393,246.787378 C203.117415,245.923762 203.073949,243.802908 203.073949,243.802908 C203.073949,243.802908 209.593847,241.996364 211.375953,243.802908 C211.615558,244.046869 211.82493,244.315922 212,244.604838 Z" id="Path" fill="#000000" opacity="0.1"></path>
                <path d="M212.638863,236.577329 C212.192397,237.35963 211.811679,238.178012 211.500671,239.023952 L211.500671,245.489153 C209.87251,248.186555 201.409114,247.287421 200.270923,245.816389 C199.132732,244.345357 197.912372,240.5011 199.211857,239.846629 C200.511343,239.192157 201.567366,235.922857 201.567366,235.922857 C201.567366,235.922857 200.182668,236.250093 197.985411,233.632206 C195.788154,231.01432 196.439418,225.209706 196.850263,223.821248 C197.261107,222.432789 196.850263,217.768914 196.850263,217.768914 C196.850263,217.768914 196.932432,214.499614 196.281167,213.435333 C195.629903,212.371052 194.263464,206.321777 194.263464,206.321777 C194.263464,206.321777 194.263464,204.278846 193.12223,203.214565 C191.980995,202.150284 191.250605,197.98185 191.250605,197.98185 C190.584646,196.939729 190.297587,195.698324 190.438046,194.467888 C190.681509,192.4219 189.053348,190.213822 189.053348,190.213822 L186.286995,181.384571 L183.684981,174.76034 L182.221157,178.604596 C182.221157,178.604596 181.813356,187.598994 182.138988,189.479835 C182.46462,191.360677 182.951547,196.34873 182.951547,196.34873 C182.951547,196.34873 181.326429,199.61803 182.056819,202.398005 C182.787209,205.17798 182.546789,211.147741 182.546789,211.147741 C182.546789,211.147741 183.277179,223.494012 182.625915,224.47572 C181.97465,225.457427 182.056819,227.910167 182.056819,227.910167 C182.056819,227.910167 185.404441,235.103238 184.336245,236.084946 C183.26805,237.066653 183.602812,239.75488 183.602812,239.75488 C183.602812,239.75488 185.882238,239.75488 184.905341,240.736588 C183.928444,241.718295 183.195011,246.853145 183.195011,246.853145 L173.35909,248 C173.35909,248 172.446102,246.853145 171.155747,243.828508 C169.865391,240.80387 171.39921,241.131106 172.707826,240.80387 C174.016441,240.476634 173.188666,239.660074 171.642673,238.663075 C170.096681,237.666076 170.991409,235.47329 170.991409,235.47329 C170.991409,235.47329 173.34996,231.466945 172.537401,231.139709 C171.724842,230.812473 171.642673,225.169949 171.642673,225.169949 C171.642673,225.169949 170.014512,218.466202 170.425356,216.667934 C170.836201,214.869666 169.107611,210.563609 169.107611,210.563609 L168.538515,205.41041 C165.607825,200.342842 166.749059,195.682025 166.749059,195.682025 L166.749059,187.761083 C166.749059,187.761083 164.469634,172.390173 164.144001,164.622145 C163.937057,159.646326 163.99488,152.856947 164.061832,148.621231 C164.101395,146.244948 164.144001,144.669935 164.144001,144.669935 L199.294026,141 C199.294026,141 199.257507,142.630063 199.933118,146.248006 C200.289183,148.186955 200.846105,150.697802 201.734747,153.838654 C204.257636,162.833052 202.711643,169.536799 202.711643,169.536799 L202.386011,180.898305 C202.386011,180.898305 205.477996,188.504244 204.820645,191.119073 C204.430429,192.671283 204.212016,194.262059 204.16938,195.862463 C204.16938,195.862463 211.09287,212.456684 210.359437,217.291823 C209.626003,222.126961 212.638863,229.720668 212.638863,229.720668 C212.638863,229.720668 213.451422,235.103238 212.638863,236.577329 Z" id="Path" fill="#575988"></path>
                <path d="M193,194.325086 L204,193 C204,193 197.767918,198.753366 193,194.325086 Z" id="Path" fill="#000000" opacity="0.05"></path>
                <path d="M202.258351,183 C202.258351,183 202.680472,186.632379 200,188 C200,188 204.798116,187.374635 202.258351,183 Z" id="Path" fill="#000000" opacity="0.1"></path>
                <path d="M201,170 C201,170 191.806532,177.590714 188.462599,176.963123 C185.118667,176.335532 201,170 201,170 Z" id="Path" fill="#000000" opacity="0.1"></path>
                <path d="M179,198 C179,198 172.211198,199.578005 172.004371,202.357411 C171.797543,205.136816 179,198 179,198 Z" id="Path" fill="#000000" opacity="0.1"></path>
                <path d="M181.386497,232 C181.386497,232 171.753347,233.721035 174.489101,234.892741 C177.224854,236.064448 181.713199,236.999475 181.713199,236.999475 C181.713199,236.999475 184.815348,237.157261 181.386497,232 Z" id="Path" fill="#000000" opacity="0.05"></path>
                <g id="Group" opacity="0.05" transform="translate(164.000000, 145.000000)" fill="#000000">
                    <path d="M8.1182716,91.5332743 C7.63138512,91.2285151 7.30952758,90.717259 7.2441358,90.1447493 L7.14734568,90.3148968 C7.14734568,90.3148968 6.25808642,92.5085841 7.79462963,93.4838938 L8.2937037,93.8120354 C8.575,93.7603835 8.88049383,93.720885 9.17691358,93.6449263 C10.4775309,93.319823 9.65481481,92.5085841 8.1182716,91.5332743 Z" id="Path"></path>
                    <path d="M20.4106173,90.8830678 C20.6707407,90.64 20.6616667,90.0171386 20.501358,89.2150147 C20.0718519,89.8439528 19.9690123,90.8223009 19.9599383,91.5666962 C20.0598366,91.3091033 20.213511,91.0759968 20.4106173,90.8830678 Z" id="Path"></path>
                    <path d="M18.9406173,50.47 C18.5871709,51.4301953 18.3702825,52.4356596 18.296358,53.4566962 C18.4785393,52.7515629 18.7256115,52.0649779 19.0343827,51.4058112 C19.0343827,51.4058112 18.9980864,51.0381711 18.9406173,50.47 Z" id="Path"></path>
                    <path d="M40.787963,46.2041593 C40.8541821,45.9133015 40.8836529,45.6152212 40.875679,45.3169617 C40.757716,45.9246313 40.6730247,46.4867257 40.6125309,46.9789381 C40.6639506,46.7267552 40.7214198,46.4684956 40.787963,46.2041593 Z" id="Path"></path>
                    <path d="M18.7107407,79.3494985 C18.8438272,79.1489676 18.9164198,78.480531 18.952716,77.5447198 C18.6502469,78.1371976 18.5262346,79.0942773 18.4869136,79.8234808 C18.5425673,79.6571379 18.6177032,79.4980281 18.7107407,79.3494985 Z" id="Path"></path>
                    <path d="M20.7161111,94.6688496 C20.050679,96.4918584 19.6,99.6578171 19.6,99.6578171 L9.82117284,100.794159 C9.82117284,100.794159 8.91376543,99.6578171 7.6312963,96.6528909 C7.51938272,96.3885546 7.42864198,96.1515634 7.35604938,95.9358407 C6.76925926,96.2062537 6.53938272,96.8169617 7.30765432,98.600472 C8.60222222,101.605398 9.49753086,102.744779 9.49753086,102.744779 L19.276358,101.599322 C19.276358,101.599322 20.0053086,96.4827434 20.9762346,95.5226254 C21.4541358,95.0364897 21.148642,94.7903835 20.7161111,94.6688496 Z" id="Path"></path>
                    <path d="M7.79462963,80.0787021 C7.79462963,80.0787021 7.8762963,85.6844543 8.68388889,86.0095575 C9.09222222,85.0828614 9.36444444,84.1865487 8.98635802,84.0558997 C8.17876543,83.7338348 8.09709877,78.1280826 8.09709877,78.1280826 C8.09709877,78.1280826 6.47888889,71.4649853 6.88722222,69.6784366 C7.29555556,67.8918879 5.59265432,63.5865487 5.59265432,63.5865487 L5.02703704,58.4699705 C2.11425926,53.4323894 3.24851852,48.8019469 3.24851852,48.8019469 L3.24851852,40.9265487 C3.24851852,40.9265487 0.983024691,25.6527729 0.659382716,17.9353687 C0.453703704,12.9950147 0.51117284,6.24988201 0.577716049,2.04176991 C0.577716049,1.27914454 0.604938272,0.604631268 0.617037037,0.036460177 L0.335740741,0.0638053097 C0.335740741,0.0638053097 0.293395062,1.62855457 0.254074074,3.98935103 C0.187530864,8.19746313 0.130061728,14.9274041 0.335740741,19.8859882 C0.659382716,27.6033923 2.92487654,42.8741298 2.92487654,42.8741298 L2.92487654,50.7556047 C2.92487654,50.7556047 1.79061728,55.3860472 4.70339506,60.42059 L5.26901235,65.5402065 C5.26901235,65.5402065 6.9658642,69.8455457 6.56358025,71.6169027 C6.1612963,73.3882596 7.79462963,80.0787021 7.79462963,80.0787021 Z" id="Path"></path>
                    <path d="M36.583642,98.600472 C35.7889866,97.4454952 35.2600013,96.1274394 35.035,94.7417699 C34.0368519,95.6532743 35.1832099,99.1625664 36.2448765,100.551091 C37.3761111,102.012537 45.7877778,102.905811 47.4059877,100.225988 L47.4059877,98.679469 C45.2342593,100.857965 37.6543827,99.9829204 36.583642,98.600472 Z" id="Path"></path>
                    <path d="M48.8759877,89.4216224 C48.4306453,90.1984278 48.0512182,91.0115271 47.7417284,91.8523009 L47.7417284,92.9916814 C47.9262346,92.5754277 48.1893827,92.01941 48.5523457,91.3661652 C48.7852469,90.9438348 48.882037,90.1994395 48.9062346,89.3517404 C48.8941358,89.3790855 48.8850617,89.4033923 48.8759877,89.4216224 Z" id="Path"></path>
                    <path d="M37.0796914,90.700767 C37.3890021,90.0765337 37.6557877,89.431936 37.8782099,88.7714159 C37.8782099,88.7714159 36.5019753,89.0965192 34.3181481,86.4987316 C32.7301852,84.6058407 32.6394444,81.029705 32.8662963,78.699292 C32.457963,80.0817404 31.8137037,85.8485251 33.9945062,88.4463127 C35.4282099,90.1477876 36.5019753,90.5944248 37.0796914,90.700767 Z" id="Path"></path>
                    <path d="M32.8632716,72.6864012 C33.0056712,74.2874272 33.0591903,75.8951776 33.0235802,77.5021829 C33.0650314,77.2480989 33.1205704,76.9965374 33.1899383,76.7486726 C33.5982716,75.3692625 33.1899383,70.7388201 33.1899383,70.7388201 C33.1899383,70.7388201 33.2716049,67.4877876 32.624321,66.4334808 C31.977037,65.379174 30.5887037,59.3662832 30.5887037,59.3662832 C30.5887037,59.3662832 30.5887037,57.3336283 29.4574691,56.2793215 C28.3262346,55.2250147 27.597284,51.080708 27.597284,51.080708 C26.9356388,50.0441449 26.6503838,48.8099707 26.7896914,47.5866077 C27.0316667,45.5569912 25.4134568,43.3633038 25.4134568,43.3633038 L22.6640123,34.5885546 L20.0779012,28.010531 L18.62,31.8266962 C18.62,31.8266962 18.5988272,32.3067552 18.5716049,33.0602655 L19.7542593,29.9581121 L22.3403704,36.539174 L25.0898148,45.310885 C25.0898148,45.310885 26.7080247,47.5045723 26.4660494,49.5372271 C26.3264489,50.7596445 26.6117535,51.9929594 27.273642,53.0282891 C27.273642,53.0282891 28.0025926,57.1725959 29.1338272,58.2269027 C30.2650617,59.2812094 30.2862346,61.3138643 30.2862346,61.3138643 C30.2862346,61.3138643 31.6624691,67.3267552 32.3097531,68.3810619 C32.957037,69.4353687 32.8632716,72.6864012 32.8632716,72.6864012 Z" id="Path"></path>
                </g>
                <path d="M203.85989,67.5169242 L203.262442,70.4237585 L203.298289,71.7163467 L203.322187,72.6723855 L199.976479,73 L199.603075,72.3120095 C198.913022,71.0670743 197.482135,68.5325292 197.016125,68.1423701 C196.400754,67.6241435 195.30145,59.5409996 196.62181,60.0205082 C197.426296,60.3308613 198.087101,60.9270986 198.476885,61.6943206 C198.476885,61.6943206 205.030888,62.4537906 203.85989,67.5169242 Z" id="Path" fill="#FFCDD3"></path>
                <path d="M203,73.5957689 L199.402901,74 L199,73.1880227 C199.515713,72.6080389 200.988719,71.2898939 202.970991,72.485012 L203,73.5957689 Z" id="Path" fill="#000000" opacity="0.1"></path>
                <path d="M204,74.8654168 L199.359168,76 L199.2615,75.2785887 L199,73.347174 C199,73.347174 200.830498,70.8025597 203.486452,72.7077413 L203.716446,73.6914839 L204,74.8654168 Z" id="Path" fill="#DCE6F2"></path>
                <path d="M132,68.408259 L127.139544,71 C127.139544,71 126.953558,70.6192229 126.699376,70.078765 C126.234408,69.1176099 125.546257,67.6682002 125.357171,67.1492379 C125.068891,66.3508342 123.035435,65.3436174 123.035435,65.3436174 C117.942496,60.519417 124.011866,56.3738597 124.011866,56.3738597 C127.223238,49.9712767 130.806585,58.5479742 130.806585,58.5479742 C130.806585,58.5479742 131.302549,63.068167 130.952274,63.3721745 C130.601999,63.6761821 130.601999,64.9075661 130.601999,64.9075661 C131.066834,65.7961453 131.458673,66.720368 131.773716,67.671271 C131.919406,68.1318885 132,68.408259 132,68.408259 Z" id="Path" fill="#FFCDD3"></path>
                <path d="M131,68.6854707 L126.415205,71 C126.415205,71 126.239766,70.6599507 126,70.1773 C126.646199,69.6699684 128.944444,67.9231021 129.69883,68.0026297 C130.059641,68.0445723 130.423999,68.0528398 130.78655,68.0273107 C130.923977,68.4386607 131,68.6854707 131,68.6854707 Z" id="Path" fill="#000000" opacity="0.1"></path>
                <path d="M132,70.078507 L126.209951,73 L126.095134,71.7239456 L126,70.8307075 C126,70.8307075 129.352652,67.8890663 130.343357,68.0032396 C130.84475,68.078876 131.354266,68.078876 131.855659,68.0032396 L131.921268,69.0710956 L132,70.078507 Z" id="Path" fill="#DCE6F2"></path>
                <path d="M191,87.3453086 C191,87.3453086 167.087366,90.0124175 171.556611,88.5743911 C174.66457,87.5726889 175.907753,85.6153752 176.162606,83.4460447 C176.373947,81.6300754 175.901537,79.6666163 175.273729,77.976628 C174.709005,76.4850679 173.992573,75.0540437 173.135454,73.7055666 C173.135454,73.7055666 191.416466,63.7622899 187.742859,72.7837548 C187.179396,74.1511449 186.830392,75.5955699 186.707909,77.067107 C186.596043,78.5284984 186.755086,79.9978014 187.177211,81.4026952 C187.869562,83.6956528 189.193112,85.7531425 191,87.3453086 Z" id="Path" fill="#FFCDD3"></path>
                <path d="M187.519495,73.5846682 C186.960018,74.8765722 186.613483,76.2412586 186.491866,77.6315602 C184.782238,78.9814919 182.905968,78.8943996 180.49891,78.8943996 C178.647327,78.8943996 176.601328,79.315346 175.123148,78.4763562 C174.562419,77.0671369 173.851055,75.7151116 173,74.4410765 C173,74.4410765 191.151683,65.0467131 187.519495,73.5846682 Z" id="Path" fill="#000000" opacity="0.1"></path>
                <circle id="Oval" fill="#FFCDD3" cx="180.5" cy="69.5" r="9.5"></circle>
                <path d="M191,88.269747 C191,88.269747 167.087366,91.0586496 171.556611,89.5549556 C174.66457,88.5075106 175.907753,86.4608159 176.162606,84.1924228 C177.352954,82.8622319 179.746082,81.8983255 181.281413,81.3874551 C182.689365,80.89741 184.209793,80.8715871 185.632555,81.3135556 C186.190735,81.4855849 186.721593,81.7410433 187.20829,82.0718286 C187.894548,84.4600321 189.206915,86.6052225 191,88.269747 Z" id="Path" fill="#000000" opacity="0.1"></path>
                <path d="M204,75.0760715 L199.103059,76 L199,75.412531 C200.379654,73.9972648 202.118351,73.8263647 203.700798,74.1227696 L204,75.0760715 Z" id="Path" fill="#000000" opacity="0.1"></path>
                <path d="M132,69.0205479 L127.097222,72 L127,70.6986301 C128.752778,69.4246575 131.688889,68.1130137 131.944444,68 L132,69.0205479 Z" id="Path" fill="#000000" opacity="0.1"></path>
                <path d="M200,147.208404 C190.898447,148.636613 177.945533,150.499362 175.890048,149.87642 C174.185798,149.359833 168.740137,149.414531 164,149.572545 C164.039705,147.211443 164.082464,145.646491 164.082464,145.646491 L199.358615,142 C199.358615,142 199.321965,143.613572 200,147.208404 Z" id="Path" fill="#000000" opacity="0.1"></path>
                <path d="M209,144.997161 C209,144.997161 179.106774,150.164428 175.895659,149.180041 C172.684544,148.195653 156.217678,149.26284 156.217678,149.26284 C148.805303,154.261442 151.900647,146.883137 151.900647,146.883137 C151.900647,146.883137 151.248675,143.031453 152.144375,139.915759 C152.74185,137.630299 153.149468,135.298783 153.363015,132.945315 C153.363015,132.945315 153.201545,128.038711 154.097245,126.879526 C154.992945,125.720341 156.050115,117.532446 156.050115,117.532446 C156.050115,117.532446 156.866603,111.957317 156.784345,110.727599 C156.702087,109.497882 157.028073,106.054059 157.028073,106.054059 L158.091336,100.325599 C151.998138,99.5068097 133.413886,88.0284232 133.413886,88.0284232 C132.518186,84.1736725 125.593267,75.148588 125.593267,75.148588 C125.492578,74.3901641 125.301289,73.6467501 125.023553,72.934483 C124.533051,71.6219665 131.866214,69 131.866214,69 C131.866214,69 137.322672,75.7220473 138.4621,77.5252243 C139.601528,79.3284012 143.513361,82.6924915 143.513361,82.6924915 C144.120616,82.6296494 144.734058,82.7105092 145.304761,82.9286218 C145.338274,82.9286218 145.365693,82.9470215 145.399206,82.9562214 C145.432718,82.9654213 145.399206,82.9562214 145.399206,82.9562214 C147.227165,83.5971466 149.055124,85.0629945 149.055124,85.0629945 C151.988999,84.9004632 154.024126,86.9489703 154.024126,86.9489703 C154.024126,86.9489703 157.375385,86.45831 157.932913,87.0317693 C158.49044,87.6052286 161.354243,87.0317693 161.354243,87.0317693 C161.354243,87.0317693 164.205859,80.9629136 166.079518,82.7384909 C167.953176,84.5140682 175.901752,84.4190027 175.901752,84.4190027 C176.961968,83.0022208 179.539391,81.9871672 181.151041,81.4627739 C182.531196,80.9950566 184.021607,80.9704103 185.416279,81.3922414 C186.017463,81.5646222 186.584402,81.8406173 187.091909,82.2079643 L191.914674,86.9612369 C191.914674,86.9612369 193.300877,85.1580599 193.133314,84.7471318 C192.965751,84.3362038 194.763244,84.0111413 194.763244,84.0111413 C194.763244,84.0111413 197.124358,83.2720841 198.020058,83.0267539 C198.915758,82.7814237 199.73834,83.7566112 199.811458,83.8424768 C199.780992,83.7382114 199.168626,81.7541035 199.406261,80.2391895 C199.643895,78.7242756 198.428303,77.2860273 198.428303,77.2860273 C201.279919,70.2327842 207.714335,76.1391087 207.714335,76.1391087 C207.714335,76.1391087 208.448566,79.9938593 207.796594,81.4689071 C207.144621,82.9439549 208.448566,86.0688483 208.284049,86.8784379 C208.119533,87.6880276 208.610035,89.0925429 208.610035,90.6503896 C208.610035,92.2082364 207.796594,95.1613986 207.306091,96.4769818 C206.815589,97.7925649 202.89157,100.724261 202.89157,100.724261 C202.89157,100.724261 202.644795,105.397801 200.935653,108.102566 C199.226511,110.807332 200.283681,120.062413 200.283681,120.062413 C200.283681,120.062413 201.913611,127.278188 203.9396,129.568958 C205.965588,131.859729 209,144.997161 209,144.997161 Z" id="Path" fill="#656691"></path>
                <path d="M165.797996,91 C165.797996,91 164.962834,88.309335 164.204371,88.0622331 C163.448009,87.7636489 162.711507,87.4099695 162,87.0036608 L162.488598,86 C162.488598,86 165.343486,86.8389262 165.797996,87.7358145 C166.252505,88.6327029 165.797996,91 165.797996,91 Z" id="Path" fill="#000000" opacity="0.1"></path>
                <path d="M149,85.3150912 C148.847513,86.2039801 142,87 142,87 L145.452528,83 L145.538841,83.0331675 C145.538841,83.0331675 145.538841,83.0331675 145.538841,83.0331675 C147.288122,83.7296849 149,85.3150912 149,85.3150912 Z" id="Path" fill="#000000" opacity="0.1"></path>
                <circle id="Oval" fill="#575988" cx="128.5" cy="73.5" r="1"></circle>
                <circle id="Oval" fill="#575988" cx="129.5" cy="75.5" r="1"></circle>
                <circle id="Oval" fill="#575988" cx="129.5" cy="76.5" r="1"></circle>
                <circle id="Oval" fill="#575988" cx="130.5" cy="77.5" r="1"></circle>
                <circle id="Oval" fill="#575988" cx="207.5" cy="77.5" r="1"></circle>
                <circle id="Oval" fill="#575988" cx="207.5" cy="78.5" r="1"></circle>
                <circle id="Oval" fill="#575988" cx="207.5" cy="79.5" r="1"></circle>
                <path d="M165.000221,113.000291 C164.926071,112.904921 183.537687,136.319641 198,122.789495 C198,122.783342 175.161842,125.875156 165.000221,113.000291 Z" id="Path" fill="#000000" opacity="0.1"></path>
                <path d="M155,125 C155,125 165.861446,125.304018 167,128.453648 L167,131.734006 C166.372122,132.088665 165.606794,132.088665 164.978916,131.734006 C163.88253,131.125969 157.316265,127.781768 155,129.390024 L155,125 Z" id="Path" fill="#000000" opacity="0.1"></path>
                <path d="M155,125 C155,125 165.862992,125.299689 167,128.452798 L167,131.733434 C166.371712,132.088855 165.60624,132.088855 164.977953,131.733434 C163.885039,131.137244 157.314961,127.770528 155,129.390122 L155,125 Z" id="Path" fill="#656691"></path>
                <path d="M161,101 C161,101 162.265812,104.293753 165.290889,108.443509 C167.161114,110.982698 169.427077,113.197115 172,115 C172,115 161.183895,102.538325 161,101 Z" id="Path" fill="#000000" opacity="0.1"></path>
                <path d="M157,88 C157,88 158.951673,96.2183908 164,99 L157,88 Z" id="Path" fill="#000000" opacity="0.1"></path>
                <path d="M155.156464,89.0025112 C155.112637,88.8533414 153.596239,95.3857384 161,99 C160.997078,99 157.853256,97.8656875 155.156464,89.0025112 Z" id="Path" fill="#000000" opacity="0.1"></path>
                <path d="M203.002843,84.0056299 C202.877914,84.0056299 206.906872,86.7384326 208,88 C208,88.009968 205.370246,83.8258841 203.002843,84.0056299 Z" id="Path" fill="#000000" opacity="0.1"></path>
                <path d="M177.245721,78.3321096 C177.385668,78.8425265 177.556714,79.4027401 178.016982,79.6703978 C178.307958,79.8103667 178.627128,79.8817025 178.94996,79.8789217 C181.966586,80.0656596 185.104499,80.1901515 187.89721,79.035489 C188.417101,78.8502676 188.88372,78.5403757 189.256247,78.1329225 C189.750725,77.5260244 189.847133,76.7012655 190.046168,75.954314 C190.438018,74.4759724 191.271478,73.1532458 191.874803,71.7495994 C192.885683,69.3699439 193.224533,66.7582686 192.854429,64.1991645 C192.776704,63.4130338 192.518037,62.6556146 192.098717,61.9863206 C191.296357,60.8441073 189.840913,60.3803749 188.780429,59.4715838 C187.719945,58.5627928 187.041981,57.1715956 185.807342,56.4868901 C184.693989,55.8644305 183.319402,55.9422379 182.075433,56.1538742 C179.608124,56.5749375 177.243765,57.4633055 175.109204,58.7713168 C174.393921,59.2132631 173.60711,59.7205677 172.779871,59.5649528 C172.058368,59.4280117 171.535901,58.8211136 171.069413,58.251563 C170.478595,59.6086936 170.223626,61.0884289 170.326141,62.565208 C170.357846,62.7815877 170.350472,63.0019065 170.304371,63.2156783 C170.20208,63.4744588 170.045067,63.7080346 169.844103,63.9003839 C169.100831,64.7656027 168.634342,66.1350138 169.371394,67.0126819 C169.682387,67.3923822 170.183084,67.6009062 170.494077,67.9868311 C171.053863,68.6839859 170.864158,69.6830335 170.851718,70.5731507 C170.818456,70.8822535 170.895573,71.1931635 171.069413,71.4508188 C171.349306,71.7900593 171.859333,71.8180699 172.291613,71.7433748 C172.723892,71.6686796 173.165501,71.5224016 173.591561,71.6188829 C174.056083,71.7737043 174.454893,72.0807153 174.723573,72.4903263 C176.116819,74.2487747 176.661056,76.2126347 177.245721,78.3321096 Z" id="Path" fill="#2D293D"></path>
                <g id="Group" opacity="0.1" transform="translate(169.000000, 58.000000)" fill="#000000">
                    <path d="M20.7498529,19.2453521 C20.379924,19.6510108 19.9165593,19.959538 19.4002941,20.1439437 C16.6208824,21.3028169 13.5110294,21.1695775 10.5154412,20.9805634 C10.194943,20.9858737 9.8776556,20.9158364 9.58897059,20.7760563 C9.135,20.5064789 8.97132353,19.951831 8.82308824,19.443662 C8.2425,17.3180282 7.70205882,15.3783099 6.31852941,13.6121127 C6.0517232,13.2043056 5.65569466,12.8986466 5.19441176,12.744507 C4.77132353,12.6484507 4.33279412,12.7940845 3.90352941,12.8684507 C3.47426471,12.9428169 2.97705882,12.9149296 2.68985294,12.5771831 C2.51722571,12.3206626 2.44064614,12.0111217 2.47367647,11.7033803 C2.47367647,10.8171831 2.67132353,9.81943662 2.11852941,9.1284507 C1.80970588,8.74112676 1.32176471,8.53661972 1.00058824,8.15859155 C0.543529412,7.61014085 0.555882353,6.86957746 0.812205882,6.17859155 C0.287205882,7.01521127 0.0586764706,8.09042254 0.673235294,8.81859155 C0.982058824,9.19971831 1.47926471,9.40422535 1.78808824,9.7915493 C2.34088235,10.4825352 2.15558824,11.4802817 2.14323529,12.3664789 C2.11020497,12.6742203 2.18678454,12.9837612 2.35941176,13.2402817 C2.63735294,13.5780282 3.14382353,13.6059155 3.57308824,13.5315493 C4.00235294,13.4571831 4.44088235,13.3115493 4.86397059,13.4076056 C5.32525348,13.5617452 5.72128202,13.8674042 5.98808824,14.2752113 C7.37161765,16.0414085 7.91205882,17.9935211 8.49264706,20.1067606 C8.63161765,20.611831 8.80147059,21.1695775 9.25852941,21.4391549 C9.54721442,21.5789349 9.86450181,21.6489722 10.185,21.643662 C13.1805882,21.8326761 16.2966176,21.9535211 19.0698529,20.8070423 C19.5861181,20.6226366 20.0494828,20.3141094 20.4194118,19.9084507 C20.6066677,19.6688292 20.7508829,19.3983054 20.8455882,19.1090141 C20.8147059,19.155493 20.7838235,19.2019718 20.7498529,19.2453521 Z" id="Path"></path>
                    <path d="M1.63058824,4.88028169 C1.76736249,4.73764168 1.87259641,4.56764691 1.93941176,4.38140845 C1.98519125,4.16857812 1.99251329,3.9492296 1.96102941,3.73380282 C1.87964723,2.52619745 2.03600237,1.31432983 2.42117647,0.167323944 L2.36867647,0.102253521 C1.78174428,1.4533368 1.52854351,2.92661346 1.63058824,4.39690141 C1.64601178,4.55765659 1.64601178,4.71952651 1.63058824,4.88028169 Z" id="Path"></path>
                </g>
                <path d="M176,84.2458021 C176,84.2458021 187.92867,86.0963411 189,84" id="Path" fill="#000000" opacity="0.1"></path>
                <path d="M200,79 C200,79 206.556793,79 208,82" id="Path" fill="#000000" opacity="0.1"></path>
            </g>
        </g>
    </g>
</svg>