<?xml version="1.0" encoding="UTF-8"?>
<svg width="39px" height="36px" viewBox="0 0 39 36" version="1.1" xmlns="http://www.w3.org/2000/svg" xmlns:xlink="http://www.w3.org/1999/xlink">
    <!-- Generator: Sketch 52.5 (67469) - http://www.bohemiancoding.com/sketch -->
    <title>tasky_logo</title>
    <desc>Created with Sketch.</desc>
    <defs>
        <linearGradient x1="100%" y1="100%" x2="1.1673591%" y2="1.1673591%" id="linearGradient-1">
            <stop stop-color="#B122E5" offset="0%"></stop>
            <stop stop-color="#FF63DE" offset="100%"></stop>
        </linearGradient>
    </defs>
    <g id="Page-1" stroke="none" stroke-width="1" fill="none" fill-rule="evenodd">
        <g id="Today" transform="translate(-18.000000, -12.000000)" fill="url(#linearGradient-1)" fill-rule="nonzero">
            <path d="M23,12 L52,12 C54.7614237,12 57,14.2385763 57,17 C57,19.7614237 54.7614237,22 52,22 L23,22 C20.2385763,22 18,19.7614237 18,17 C18,14.2385763 20.2385763,12 23,12 Z M23,25 L32,25 C34.7614237,25 37,27.2385763 37,30 C37,32.7614237 34.7614237,35 32,35 L23,35 C20.2385763,35 18,32.7614237 18,30 C18,27.2385763 20.2385763,25 23,25 Z M23,38 L32,38 C34.7614237,38 37,40.2385763 37,43 C37,45.7614237 34.7614237,48 32,48 L23,48 C20.2385763,48 18,45.7614237 18,43 C18,40.2385763 20.2385763,38 23,38 Z" id="tasky_logo"></path>
        </g>
    </g>
</svg>