<?xml version="1.0" encoding="UTF-8"?>
<svg width="63px" height="61px" viewBox="0 0 63 61" version="1.1" xmlns="http://www.w3.org/2000/svg" xmlns:xlink="http://www.w3.org/1999/xlink">
    <!-- Generator: Sketch 52.5 (67469) - http://www.bohemiancoding.com/sketch -->
    <title>undraw_no_data_qbuo copy</title>
    <desc>Created with Sketch.</desc>
    <defs>
        <linearGradient x1="49.9988159%" y1="100%" x2="49.9988159%" y2="0%" id="linearGradient-1">
            <stop stop-color="#808080" stop-opacity="0.25" offset="0%"></stop>
            <stop stop-color="#808080" stop-opacity="0.12" offset="54%"></stop>
            <stop stop-color="#808080" stop-opacity="0.1" offset="100%"></stop>
        </linearGradient>
        <linearGradient x1="50%" y1="100%" x2="50%" y2="0%" id="linearGradient-2">
            <stop stop-color="#808080" stop-opacity="0.25" offset="0%"></stop>
            <stop stop-color="#808080" stop-opacity="0.12" offset="54%"></stop>
            <stop stop-color="#808080" stop-opacity="0.1" offset="100%"></stop>
        </linearGradient>
        <linearGradient x1="60.7608548%" y1="98.8803643%" x2="39.2987348%" y2="1.02948481%" id="linearGradient-3">
            <stop stop-color="#808080" stop-opacity="0.25" offset="0%"></stop>
            <stop stop-color="#808080" stop-opacity="0.12" offset="54%"></stop>
            <stop stop-color="#808080" stop-opacity="0.1" offset="100%"></stop>
        </linearGradient>
        <linearGradient x1="50%" y1="99.9144422%" x2="50%" y2="-0.0855578371%" id="linearGradient-4">
            <stop stop-color="#808080" stop-opacity="0.25" offset="0%"></stop>
            <stop stop-color="#808080" stop-opacity="0.12" offset="54%"></stop>
            <stop stop-color="#808080" stop-opacity="0.1" offset="100%"></stop>
        </linearGradient>
    </defs>
    <g id="Page-1" stroke="none" stroke-width="1" fill="none" fill-rule="evenodd">
        <g id="Today" transform="translate(-149.000000, -260.000000)">
            <g id="undraw_no_data_qbuo-copy" transform="translate(149.000000, 260.000000)">
                <polygon id="Rectangle" fill="#E0E0E0" transform="translate(26.558597, 30.057938) rotate(-12.110000) translate(-26.558597, -30.057938) " points="9.86271141 6.55682726 43.424079 6.4340802 43.2544823 53.5590481 9.69311475 53.6817952"></polygon>
                <g id="Group" opacity="0.5" transform="translate(5.000000, 5.000000)" fill="url(#linearGradient-1)">
                    <polygon id="Rectangle" transform="translate(21.508477, 25.487945) rotate(-12.110000) translate(-21.508477, -25.487945) " points="6.48447464 3.77390022 37.7118963 2.92333336 36.5324802 47.2019896 5.30505856 48.0525564"></polygon>
                </g>
                <polygon id="Rectangle" fill="#FAFAFA" transform="translate(26.524024, 29.894006) rotate(-12.110000) translate(-26.524024, -29.894006) " points="10.8033785 7.68875639 42.4049133 7.5731772 42.2446697 52.0992556 10.6431349 52.2148348"></polygon>
                <polygon id="Rectangle" fill="url(#linearGradient-2)" transform="translate(21.972164, 8.100140) rotate(-12.110000) translate(-21.972164, -8.100140) " points="14.1405455 6.19915325 29.8176714 6.14181586 29.8037822 10.0011277 14.1266563 10.0584651"></polygon>
                <path d="M20.5717865,3.04297337 C19.4925511,3.26974593 18.8097123,4.32961647 19.0471301,5.41004041 C19.2845479,6.49046436 20.3511771,7.18379919 21.4283115,6.95702663 C22.5054459,6.73025407 23.1903857,5.67038353 22.9529679,4.58995959 C22.7155501,3.50953564 21.651022,2.81620081 20.5717865,3.04297337 Z M21.2490225,6.13283513 C20.7824874,6.24167713 20.2950008,6.06364417 20.0155149,5.6823509 C19.7360289,5.30105764 19.7200764,4.79226557 19.9751495,4.39493311 C20.2302227,3.99760066 20.7056395,3.79067624 21.1781164,3.87134364 C21.6505933,3.95201103 22.0262511,4.30424194 22.1286589,4.76260818 C22.1985262,5.05847574 22.1449955,5.36938245 21.9799111,5.62653772 C21.8148266,5.88369299 21.5517981,6.06589681 21.2490225,6.13283513 Z" id="Shape" fill="url(#linearGradient-3)" fill-rule="nonzero"></path>
                <polygon id="Rectangle" fill="#FF63DE" transform="translate(21.920457, 7.854925) rotate(-12.110000) translate(-21.920457, -7.854925) " points="14.2536439 6.03840237 29.6005473 5.98227273 29.5872704 9.67144704 14.2403671 9.72757668"></polygon>
                <path d="M20.5803771,3.04453784 C19.5006569,3.27630639 18.8132206,4.33954742 19.0449237,5.41938643 C19.2766268,6.49922544 20.3397331,7.18677286 21.4194713,6.9550881 C22.4992096,6.72340334 23.1867283,5.66021566 22.955109,4.58035867 C22.84387,4.0617394 22.5311724,3.60856211 22.0858158,3.3205347 C21.6404593,3.03250728 21.0989307,2.93322713 20.5803771,3.04453784 Z M21.2418942,6.13049951 C20.7854819,6.228443 20.3150187,6.04176514 20.0498978,5.65752021 C19.784777,5.27327527 19.7772143,4.7671409 20.0307367,4.37514487 C20.284259,3.98314883 20.7489347,3.78249536 21.2080696,3.86675604 C21.6672044,3.95101671 22.0303711,4.30359625 22.1282126,4.76007477 C22.261788,5.3832695 21.8649987,5.99678486 21.2418942,6.13049951 Z" id="Shape" fill="#FF63DE" fill-rule="nonzero"></path>
                <rect id="Rectangle" fill="#E0E0E0" x="20" y="9" width="34" height="47"></rect>
                <g id="Group" opacity="0.5" transform="translate(21.000000, 9.000000)" fill="url(#linearGradient-1)">
                    <rect id="Rectangle" x="0.0211820331" y="0.00945205479" width="31.9432624" height="45.9535274"></rect>
                </g>
                <rect id="Rectangle" fill="#FFFFFF" x="20" y="10" width="32" height="44"></rect>
                <rect id="Rectangle" fill="url(#linearGradient-2)" x="29" y="8" width="16" height="4"></rect>
                <path d="M37,5 C35.8955851,5 35,5.89527721 35,7 C35,8.10472279 35.8955851,9 37,9 C38.1044149,9 39,8.10472279 39,7 C39,5.89527721 38.1044149,5 37,5 Z M37,8.15400411 C36.5197413,8.1651361 36.0803957,7.89113975 35.8886574,7.46091919 C35.6969191,7.03069862 35.7909666,6.52991821 36.1265543,6.19417475 C36.4621421,5.85843128 36.9724487,5.75457711 37.4173958,5.93147138 C37.8623428,6.10836566 38.1533336,6.53078567 38.1534688,7 C38.1581438,7.62766815 37.642594,8.14100978 37,8.14852841 L37,8.15400411 Z" id="Shape" fill="url(#linearGradient-4)" fill-rule="nonzero"></path>
                <rect id="Rectangle" fill="#FF63DE" x="29" y="8" width="15" height="4"></rect>
                <path d="M37.0000292,5 C36.1911166,5 35.4618546,5.48727723 35.1522972,6.23461509 C34.8427397,6.98195295 35.0138487,7.84217603 35.5858363,8.41416366 C36.157824,8.9861513 37.0180471,9.15726031 37.7653849,8.84770283 C38.5127228,8.53814535 39,7.80888344 39,6.99997077 C39,5.89541741 38.1045826,5 37.0000292,5 Z M37.0000292,8.15426826 C36.3630886,8.15347605 35.8471663,7.6369107 35.8471674,6.99996959 C35.8471686,6.36302848 36.3630928,5.84646499 37.0000334,5.84567506 C37.636974,5.84488514 38.1541779,6.36016736 38.1557588,6.99710651 C38.1555691,7.30336944 38.0336755,7.59700274 37.8169135,7.81336183 C37.6001515,8.02972092 37.306292,8.15106797 37.0000292,8.15068793 L37.0000292,8.15426826 Z" id="Shape" fill="#FF63DE" fill-rule="nonzero"></path>
                <g id="Group" opacity="0.5" transform="translate(1.000000, 57.000000)" fill="#47E6B1">
                    <rect id="Rectangle" x="0.842727273" y="0.00454545455" width="1" height="1.93909091"></rect>
                    <polygon id="Rectangle" transform="translate(1.014091, 0.974545) rotate(90.000000) translate(-1.014091, -0.974545) " points="0.772003659 0.005 1.25617816 0.005 1.25617816 1.94409091 0.772003659 1.94409091"></polygon>
                </g>
                <g id="Group" opacity="0.5" transform="translate(34.000000, 0.000000)" fill="#47E6B1">
                    <rect id="Rectangle" x="0.825217391" y="0" width="1" height="1.93909091"></rect>
                    <polygon id="Rectangle" transform="translate(0.989130, 0.969091) rotate(90.000000) translate(-0.989130, -0.969091) " points="0.747043185 0.0416996047 1.23121768 0.0416996047 1.23121768 1.89648221 0.747043185 1.89648221"></polygon>
                </g>
                <path d="M58.918401,60.5083442 C58.790443,60.4526428 58.724566,60.3098667 58.7652257,60.1763651 C58.7683956,60.1665012 58.770396,60.156299 58.7711858,60.1459684 C58.7748375,60.0853587 58.7383524,60.0295128 58.6813813,60.008509 C58.6244101,59.9875051 58.5604058,60.0063031 58.5238405,60.0547785 C58.5176428,60.0630811 58.5124417,60.072083 58.5083442,60.081599 C58.4526428,60.209557 58.3098667,60.275434 58.1763651,60.2347743 C58.1665012,60.2316044 58.156299,60.229604 58.1459684,60.2288142 C58.0853587,60.2251625 58.0295128,60.2616476 58.008509,60.3186187 C57.9875051,60.3755899 58.0063031,60.4395942 58.0547785,60.4761595 C58.0630811,60.4823572 58.072083,60.4875583 58.081599,60.4916558 C58.209557,60.5473572 58.275434,60.6901333 58.2347743,60.8236349 C58.2316044,60.8334988 58.229604,60.843701 58.2288142,60.8540316 C58.2251625,60.9146413 58.2616476,60.9704872 58.3186187,60.991491 C58.3755899,61.0124949 58.4395942,60.9936969 58.4761595,60.9452215 C58.4823572,60.9369189 58.4875583,60.927917 58.4916558,60.918401 C58.5473572,60.790443 58.6901333,60.724566 58.8236349,60.7652257 C58.8334988,60.7683956 58.843701,60.770396 58.8540316,60.7711858 C58.9146413,60.7748375 58.9704872,60.7383524 58.991491,60.6813813 C59.0124949,60.6244101 58.9936969,60.5604058 58.9452215,60.5238405 C58.9369189,60.5176428 58.927917,60.5124417 58.918401,60.5083442 Z" id="Path" fill="#4D8AF0" opacity="0.5"></path>
                <path d="M10.918401,44.5083442 C10.790443,44.4526428 10.724566,44.3098667 10.7652257,44.1763651 C10.7683956,44.1665012 10.770396,44.156299 10.7711858,44.1459684 C10.7748375,44.0853587 10.7383524,44.0295128 10.6813813,44.008509 C10.6244101,43.9875051 10.5604058,44.0063031 10.5238405,44.0547785 C10.5176428,44.0630811 10.5124417,44.072083 10.5083442,44.081599 C10.4526428,44.209557 10.3098667,44.275434 10.1763651,44.2347743 C10.1665012,44.2316044 10.156299,44.229604 10.1459684,44.2288142 C10.0853587,44.2251625 10.0295128,44.2616476 10.008509,44.3186187 C9.98750515,44.3755899 10.0063031,44.4395942 10.0547785,44.4761595 C10.0630811,44.4823572 10.072083,44.4875583 10.081599,44.4916558 C10.209557,44.5473572 10.275434,44.6901333 10.2347743,44.8236349 C10.2316044,44.8334988 10.229604,44.843701 10.2288142,44.8540316 C10.2251625,44.9146413 10.2616476,44.9704872 10.3186187,44.991491 C10.3755899,45.0124949 10.4395942,44.9936969 10.4761595,44.9452215 C10.4823572,44.9369189 10.4875583,44.927917 10.4916558,44.918401 C10.5473572,44.790443 10.6901333,44.724566 10.8236349,44.7652257 C10.8334988,44.7683956 10.843701,44.770396 10.8540316,44.7711858 C10.9146413,44.7748375 10.9704872,44.7383524 10.991491,44.6813813 C11.0124949,44.6244101 10.9936969,44.5604058 10.9452215,44.5238405 C10.9369189,44.5176428 10.927917,44.5124417 10.918401,44.5083442 Z" id="Path" fill="#FDD835" opacity="0.5"></path>
                <path d="M50.918401,5.50834418 C50.790443,5.45264277 50.724566,5.3098667 50.7652257,5.17636507 C50.7683956,5.16650115 50.770396,5.15629904 50.7711858,5.14596842 C50.7748375,5.08535867 50.7383524,5.02951282 50.6813813,5.00850898 C50.6244101,4.98750515 50.5604058,5.00630312 50.5238405,5.05477847 C50.5176428,5.06308111 50.5124417,5.07208297 50.5083442,5.08159904 C50.4526428,5.20955703 50.3098667,5.27543396 50.1763651,5.23477432 C50.1665012,5.23160438 50.156299,5.22960396 50.1459684,5.22881419 C50.0853587,5.22516253 50.0295128,5.26164756 50.008509,5.31861874 C49.9875051,5.37558992 50.0063031,5.43959424 50.0547785,5.47615949 C50.0630811,5.4823572 50.072083,5.48755827 50.081599,5.49165582 C50.209557,5.54735723 50.275434,5.6901333 50.2347743,5.82363493 C50.2316044,5.83349885 50.229604,5.84370096 50.2288142,5.85403158 C50.2251625,5.91464133 50.2616476,5.97048718 50.3186187,5.99149102 C50.3755899,6.01249485 50.4395942,5.99369688 50.4761595,5.94522153 C50.4823572,5.93691889 50.4875583,5.92791703 50.4916558,5.91840096 C50.5473572,5.79044297 50.6901333,5.72456604 50.8236349,5.76522568 C50.8334988,5.76839562 50.843701,5.77039604 50.8540316,5.77118581 C50.9146413,5.77483747 50.9704872,5.73835244 50.991491,5.68138126 C51.0124949,5.62441008 50.9936969,5.56040576 50.9452215,5.52384051 C50.9369189,5.5176428 50.927917,5.51244173 50.918401,5.50834418 Z" id="Path" fill="#FDD835" opacity="0.5"></path>
                <circle id="Oval" fill="#F55F44" opacity="0.5" cx="62.5" cy="24.5" r="1"></circle>
                <circle id="Oval" fill="#F55F44" opacity="0.5" cx="17.5" cy="58.5" r="1"></circle>
                <circle id="Oval" fill="#F55F44" opacity="0.5" cx="56.5" cy="37.5" r="1"></circle>
                <circle id="Oval" fill="#4D8AF0" opacity="0.5" cx="7.5" cy="7.5" r="1"></circle>
                <circle id="Oval" fill="#47E6B1" opacity="0.5" cx="0.5" cy="23.5" r="1"></circle>
            </g>
        </g>
    </g>
</svg>